<?xml version="1.0" encoding="utf-8"?>
<!-- Generator: Adobe Illustrator 27.2.0, SVG Export Plug-In . SVG Version: 6.00 Build 0)  -->
<svg version="1.1" id="Calque_1" xmlns="http://www.w3.org/2000/svg" xmlns:xlink="http://www.w3.org/1999/xlink" x="0px" y="0px"
	 viewBox="0 0 1090 1090" style="enable-background:new 0 0 1090 1090;" xml:space="preserve">
<style type="text/css">
	.st0{fill:#1D1D1B;}
</style>
<g>
	<path class="st0" d="M545,1085c-144.2,0-279.8-56.2-381.8-158.2C61.2,824.8,5,689.2,5,545s56.2-279.8,158.2-381.8
		C265.2,61.2,400.8,5,545,5s279.8,56.2,381.8,158.2c102,102,158.2,237.6,158.2,381.8s-56.2,279.8-158.2,381.8
		C824.8,1028.8,689.2,1085,545,1085z M545,11.6c-142.5,0-276.4,55.5-377.2,156.2C67.1,268.6,11.6,402.5,11.6,545
		s55.5,276.4,156.2,377.2c100.7,100.7,234.7,156.2,377.2,156.2s276.4-55.5,377.2-156.2c100.7-100.7,156.2-234.7,156.2-377.2
		s-55.5-276.4-156.2-377.2C821.4,67.1,687.5,11.6,545,11.6z"/>
	<g>
		<path class="st0" d="M340.6,261l32.4-91.5h19.5l32.1,91.5h-11.4l-7.7-22H360l-7.8,22H340.6z M363.1,229.6h39.1l-19.5-56.2
			L363.1,229.6z"/>
		<path class="st0" d="M516.5,246.3c-2.9,5.4-6.9,9.6-12,12.7c-5.1,3.1-10.7,4.6-17,4.6c-5.5,0-10.4-1.2-14.8-3.7
			c-4.4-2.5-8.1-5.9-10.9-10.2V261h-9.6v-95.5h9.9v40.9c2.9-4.2,6.5-7.6,10.9-10c4.4-2.4,9.3-3.6,14.8-3.6c6.2,0,11.9,1.5,17,4.6
			c5.1,3.1,9,7.3,11.9,12.7c2.9,5.4,4.3,11.4,4.3,18.2C520.9,234.9,519.4,240.9,516.5,246.3z M465,241.6c2.1,4,5,7.2,8.8,9.6
			c3.8,2.3,8,3.5,12.7,3.5c4.6,0,8.8-1.1,12.5-3.4c3.7-2.3,6.7-5.5,8.8-9.5c2.2-4,3.2-8.5,3.2-13.5c0-4.9-1.1-9.3-3.2-13.4
			c-2.1-4.1-5.1-7.3-8.8-9.6c-3.8-2.3-8-3.4-12.5-3.4c-4.7,0-8.9,1.1-12.7,3.4c-3.8,2.3-6.7,5.5-8.8,9.6c-2.1,4.1-3.1,8.5-3.1,13.4
			C461.9,233.1,462.9,237.5,465,241.6z"/>
		<path class="st0" d="M615.2,246.3c-2.9,5.4-6.9,9.6-12,12.7c-5.1,3.1-10.7,4.6-17,4.6c-5.5,0-10.4-1.2-14.8-3.7
			c-4.4-2.5-8.1-5.9-10.9-10.2V261h-9.6v-95.5h9.9v40.9c2.9-4.2,6.5-7.6,10.9-10c4.4-2.4,9.3-3.6,14.8-3.6c6.2,0,11.9,1.5,17,4.6
			c5.1,3.1,9,7.3,11.9,12.7c2.9,5.4,4.3,11.4,4.3,18.2C619.6,234.9,618.1,240.9,615.2,246.3z M563.7,241.6c2.1,4,5,7.2,8.8,9.6
			c3.8,2.3,8,3.5,12.7,3.5c4.6,0,8.8-1.1,12.5-3.4c3.7-2.3,6.7-5.5,8.8-9.5c2.2-4,3.2-8.5,3.2-13.5c0-4.9-1.1-9.3-3.2-13.4
			c-2.1-4.1-5.1-7.3-8.8-9.6c-3.8-2.3-8-3.4-12.5-3.4c-4.7,0-8.9,1.1-12.7,3.4c-3.8,2.3-6.7,5.5-8.8,9.6c-2.1,4.1-3.1,8.5-3.1,13.4
			C560.5,233.1,561.6,237.5,563.7,241.6z"/>
		<path class="st0" d="M659.8,181c-1.4,1.3-3.2,2-5.4,2c-2,0-3.7-0.7-5.1-2c-1.4-1.3-2.1-3.1-2.1-5.3c0-2.1,0.7-3.8,2.1-5.1
			c1.4-1.3,3.1-2,5.1-2c2.2,0,4,0.7,5.4,2s2.1,3.1,2,5.1C661.9,177.9,661.2,179.7,659.8,181z M649.4,261v-65.6h9.9V261H649.4z"/>
		<path class="st0" d="M729.2,260c-4.4,2.4-9.4,3.6-15.1,3.6c-4.9,0-9.3-0.8-13.2-2.5c-3.9-1.7-7-4.1-9.2-7.1
			c-2.2-3.1-3.2-6.5-3.2-10.3c0-3.6,1-6.8,2.9-9.7c2-2.9,4.9-5.3,8.8-7.3c3.9-2,8.7-3.3,14.4-3.8l19.6-2.5c1.6-0.2,3-0.7,4-1.6
			c1-0.9,1.5-2,1.5-3.4c0-2.8-0.9-5.2-2.7-7.2c-1.8-2-4.1-3.6-7.1-4.7c-2.9-1.1-6.1-1.6-9.4-1.6c-4.1,0-7.7,0.8-10.9,2.3
			c-3.2,1.5-5.7,3.5-7.5,5.8c-1.9,2.4-2.9,4.8-3.1,7.3l-8.8-3.8c0.3-3.6,1.9-7,4.6-10.2c2.7-3.2,6.3-5.7,10.9-7.7
			c4.5-2,9.5-2.9,15.1-2.9c5.5,0,10.5,1,14.8,3.1c4.3,2,7.7,4.9,10.1,8.5c2.5,3.6,3.7,7.9,3.7,12.7V261h-10v-10.8
			C737,254.4,733.6,257.7,729.2,260z M700.5,249c1.5,1.8,3.6,3.2,6.2,4.2s5.7,1.5,9,1.5c4.5,0,8.6-0.9,12.2-2.8
			c3.6-1.9,6.4-4.4,8.5-7.7c2-3.3,3.1-7,3.1-11.2v-4.5l-24.7,2.9c-3.6,0.3-6.7,1.1-9.1,2.3c-2.4,1.2-4.2,2.6-5.5,4.2
			c-1.2,1.6-1.8,3.4-1.8,5.4C698.3,245.2,699.1,247.2,700.5,249z"/>
	</g>
	<g>
		<path class="st0" d="M454.5,894.7c-4.2,5.6-9.5,10.1-16,13.4c-6.5,3.3-13.5,4.9-21,4.9c-9.2,0-17.5-2.1-25-6.3
			c-7.5-4.2-13.2-10-17.4-17.5c-4.1-7.5-6.2-15.9-6.3-25.2c0.1-9.4,2.1-17.9,5.9-25.3c3.9-7.5,9.3-13.3,16.2-17.5
			c6.9-4.2,14.7-6.3,23.4-6.3c6.2,0,12.2,1.3,17.7,4c5.6,2.6,10.4,6.3,14.4,11.1c4,4.8,6.9,10.1,8.6,16.1l-10.3,2.3
			c-1.2-4.7-3.3-8.8-6.4-12.4c-3-3.6-6.6-6.4-10.8-8.5c-4.2-2-8.6-3.1-13.3-3.1c-6.7,0-12.7,1.7-17.9,5.1c-5.3,3.4-9.4,8.1-12.3,14
			c-2.9,5.9-4.5,12.7-4.6,20.3c0.1,7.5,1.8,14.2,5,20.1c3.3,6,7.7,10.7,13.5,14.1c5.7,3.4,12.2,5.1,19.4,5.1c5.8,0,11.2-1.3,16.1-4
			c4.9-2.7,9.1-6.3,12.4-10.9c3.3-4.6,5.3-9.6,6-15.1l10.4,2.6C461.4,882.9,458.7,889.1,454.5,894.7z"/>
		<path class="st0" d="M528.9,908.8c-4.4,2.4-9.4,3.6-15.1,3.6c-4.9,0-9.3-0.8-13.2-2.5c-3.9-1.7-7-4.1-9.2-7.1
			c-2.2-3.1-3.2-6.5-3.2-10.3c0-3.6,1-6.8,2.9-9.7c2-2.9,4.9-5.3,8.8-7.3c3.9-2,8.7-3.3,14.4-3.8l19.6-2.5c1.6-0.2,3-0.7,4-1.6
			c1-0.9,1.5-2,1.5-3.4c0-2.8-0.9-5.2-2.7-7.2c-1.8-2-4.1-3.6-7.1-4.7c-2.9-1.1-6.1-1.6-9.4-1.6c-4.1,0-7.7,0.8-10.9,2.3
			c-3.2,1.5-5.7,3.5-7.5,5.8c-1.9,2.4-2.9,4.8-3.1,7.3l-8.8-3.8c0.3-3.6,1.9-7,4.6-10.2c2.7-3.2,6.3-5.7,10.9-7.7
			c4.5-2,9.5-2.9,15.1-2.9s10.5,1,14.8,3.1c4.3,2,7.7,4.9,10.1,8.5c2.5,3.6,3.7,7.9,3.7,12.7v43.9h-10V899
			C536.7,903.2,533.3,906.5,528.9,908.8z M500.2,897.8c1.5,1.8,3.6,3.2,6.2,4.2c2.7,1,5.7,1.5,9,1.5c4.5,0,8.6-0.9,12.2-2.8
			c3.6-1.9,6.4-4.4,8.5-7.7c2-3.3,3.1-7,3.1-11.2v-4.5l-24.7,2.9c-3.6,0.3-6.7,1.1-9.1,2.3c-2.4,1.2-4.2,2.6-5.5,4.2
			c-1.2,1.6-1.8,3.4-1.8,5.4C498,894,498.7,896,500.2,897.8z"/>
		<path class="st0" d="M632.5,902c-2.4,3.2-5.8,5.8-10.1,7.7c-4.3,1.9-9,2.8-14.2,2.8c-5.4,0-10.3-1-14.7-2.9c-4.4-2-8.1-4.6-11-8
			c-2.9-3.4-4.7-7.2-5.3-11.6l9.6-2c0.3,3,1.4,5.7,3.3,8.1c2,2.3,4.5,4.2,7.6,5.5c3.1,1.3,6.7,2,10.7,2c3.3,0,6.3-0.5,9.1-1.6
			c2.8-1,5-2.4,6.6-4.2c1.6-1.8,2.4-3.7,2.4-5.9c-0.1-2.3-1-4.2-2.7-5.5c-1.7-1.3-3.9-2.4-6.4-3.2c-2.6-0.8-5.9-1.6-10.1-2.3
			c-5.7-1-10.3-2.1-13.8-3.2c-3.5-1.1-6.5-2.9-9-5.5c-2.5-2.5-3.7-6.1-3.6-10.8c-0.1-3.6,0.9-7,3.1-10.1c2.1-3.1,5-5.5,8.6-7.1
			c3.6-1.7,7.8-2.5,12.5-2.5c4.5,0,8.6,0.8,12.3,2.3c3.7,1.5,6.8,3.7,9.2,6.4c2.4,2.8,4.1,5.9,4.9,9.4l-9.5,2.7
			c-0.5-3.6-2.4-6.4-5.5-8.6c-3.2-2.2-7-3.3-11.5-3.3c-2.9,0-5.4,0.5-7.5,1.4c-2.2,1-3.9,2.3-5.1,4c-1.3,1.7-1.9,3.5-1.9,5.5
			c-0.1,2.4,0.7,4.3,2.5,5.5c1.7,1.3,3.3,2.1,4.6,2.4c1.3,0.3,5.4,1.1,12.3,2.3c5.2,1,9.7,2.2,13.4,3.6c3.7,1.3,6.8,3.3,9.2,5.8
			c2.4,2.6,3.6,5.9,3.7,9.9C636.2,895,635,898.7,632.5,902z"/>
		<path class="st0" d="M700.9,908.8c-4.4,2.4-9.4,3.6-15.1,3.6c-4.9,0-9.3-0.8-13.2-2.5c-3.9-1.7-7-4.1-9.2-7.1
			c-2.2-3.1-3.2-6.5-3.2-10.3c0-3.6,1-6.8,2.9-9.7c2-2.9,4.9-5.3,8.8-7.3c3.9-2,8.7-3.3,14.4-3.8l19.6-2.5c1.6-0.2,3-0.7,4-1.6
			c1-0.9,1.5-2,1.5-3.4c0-2.8-0.9-5.2-2.7-7.2c-1.8-2-4.1-3.6-7.1-4.7c-2.9-1.1-6.1-1.6-9.4-1.6c-4.1,0-7.7,0.8-10.9,2.3
			c-3.2,1.5-5.7,3.5-7.5,5.8c-1.9,2.4-2.9,4.8-3.1,7.3l-8.8-3.8c0.3-3.6,1.9-7,4.6-10.2c2.7-3.2,6.3-5.7,10.9-7.7
			c4.5-2,9.5-2.9,15.1-2.9s10.5,1,14.8,3.1c4.3,2,7.7,4.9,10.1,8.5c2.5,3.6,3.7,7.9,3.7,12.7v43.9h-10V899
			C708.6,903.2,705.2,906.5,700.9,908.8z M672.2,897.8c1.5,1.8,3.6,3.2,6.2,4.2c2.7,1,5.7,1.5,9,1.5c4.5,0,8.6-0.9,12.2-2.8
			c3.6-1.9,6.4-4.4,8.5-7.7c2-3.3,3.1-7,3.1-11.2v-4.5l-24.7,2.9c-3.6,0.3-6.7,1.1-9.1,2.3c-2.4,1.2-4.2,2.6-5.5,4.2
			c-1.2,1.6-1.8,3.4-1.8,5.4C670,894,670.7,896,672.2,897.8z"/>
	</g>
	<path class="st0" d="M749.9,496.4c23-18.5,43.6-39.7,43.6-68.7c0-41.6-42.7-86.5-136.4-86.5H521.3v6.5l49.8,0.4v167.7h58.2V347.7
		h22.3c58.4,0,85,41.5,85,80c0,46.3-27.5,76.5-56.6,108.5c-29,31.9-59,64.9-58.2,114.8l0.1,7.9c0.2,9.2,0.3,18.6,0.2,24
		c-0.5,29.1-27.2,49.4-43.6,49.4c-16.2,0-36-16.7-36-63.7V508.1c0-39.8-12.8-73.8-41.5-98.3c-26.1-22.3-61-34.5-98.2-34.5
		c-29,0-55.5,6.2-74.7,17.3c-22.5,13.1-35.2,32.8-35.2,56.7c0,33.4,28,57.6,51.6,75c0.9,0.7,1.8,1.3,2.7,2
		c-74.7,24.2-120.5,73.8-120.5,128.4c0,27.6,10.7,52.1,35.5,69.4c21.9,15.3,51.8,24.1,81.9,24.1c30.2,0,58.3-8.2,78.4-23.9
		c23.1-18.1,35.9-45.3,35.9-77.7c0-49.8-43.5-80.2-81.1-106.9c-11.1-7.7-20.5-14.5-28.6-20.8c-23.8-17.8-48.1-40.1-48.1-69.7
		c0-31,27-66.5,102.6-66.5c54.1,0,81.4,32,81.4,96.6v189.3c0,55.1,35,79.7,69.7,79.7c31.4,0,72.6-21.5,74.7-61.4
		c13.1,38.4,48.4,61.8,94.4,61.8c42.4,0,78.5-14.4,104.4-41.5c22.8-23.9,35.9-56.9,35.9-90.4C863.4,566.8,833.6,505.8,749.9,496.4
		L749.9,496.4z M721.8,517.6c7.2-5.3,14-10.4,20.6-15.5c31.5,7.3,65.2,46.2,65.2,114.8c0,85.2-50.3,124.4-97.7,123.3
		c-38.1-0.9-80.5-31.1-80.5-90.5C629.3,586,678.4,549.6,721.8,517.6L721.8,517.6z M282.4,643.6c0-46.7,21.9-99.5,70.9-112.7
		c7.9,5.8,14.5,10.4,20.6,14.3c43.5,30.8,76.8,57.9,76.8,101.3c0,58.8-35.1,89.5-77.7,89.5c-21.9,0-50-8-64.8-22.6
		C291.3,696.8,282.4,672.7,282.4,643.6z"/>
</g>
</svg>
