<?xml version="1.0" encoding="UTF-8"?><svg id="Calque_1" xmlns="http://www.w3.org/2000/svg" viewBox="0 0 595.27559 595.27559"><defs><style>.cls-1{fill:#1d1d1b;}</style></defs><path class="cls-1" d="M392.87222,275.1493c10.70726-8.60083,20.27526-18.47579,20.27526-31.94868,0-19.35539-19.83898-40.18821-63.39666-40.18821h-63.13007v3.00717l23.14768,.17109v77.95347h27.04391v-78.12456h10.35904c27.14002,0,39.50133,19.27287,39.50133,37.18104,0,21.51919-12.78249,35.57379-26.31577,50.45365-13.48648,14.82853-27.43188,30.16229-27.06504,53.37729l.0624,3.68851c.07447,4.25915,.15147,8.66323,.10769,11.17625-.23651,13.52321-12.62608,22.94629-20.28792,22.94629-7.54208,0-16.71894-7.77557-16.71894-29.5997v-74.65393c0-18.48786-5.94303-34.28054-19.3017-45.67217-12.13436-10.34797-28.34017-16.0473-45.63191-16.0473-13.47843,0-25.81558,2.86124-34.73846,8.05535-10.45817,6.08781-16.3756,15.23595-16.3756,26.37597,0,15.5451,13.01719,26.78393,24.00574,34.86646,.40055,.30796,.8157,.61291,1.23286,.91785-34.73746,11.22556-56.0141,34.31908-56.0141,59.65762,0,12.83583,4.98981,24.22414,16.47906,32.27245,10.18443,7.13348,24.06039,11.22456,38.0697,11.22456,14.05057,0,27.09455-3.79065,36.44566-11.12138,10.75708-8.43175,16.67882-21.03497,16.67882-36.1292,0-23.13247-20.20914-37.26623-37.70065-49.67131-5.1604-3.57479-9.51164-6.7289-13.30885-9.64851-11.06152-8.29589-22.36911-18.6348-22.36911-32.41062,0-14.42194,12.55702-30.8872,47.68698-30.8872,25.16845,0,37.83826,14.85298,37.83826,44.88645v87.98492c0,25.5992,16.26821,37.05825,32.3915,37.05825,14.58096,0,33.73616-9.9917,34.69779-28.54095,6.10643,17.84074,22.49893,28.71506,43.89735,28.71506,19.72173,0,36.50321-6.67757,48.53039-19.31111,10.59706-11.13096,16.6748-26.44761,16.6748-42.0229,0-23.25626-13.86288-51.62411-52.77143-55.99196Zm-13.07033,9.8357c3.34432-2.47478,6.50799-4.81671,9.58309-7.21298,14.65744,3.41276,30.29765,21.47692,30.29765,53.36924,0,39.57832-23.39496,57.82865-45.43163,57.29426-17.72158-.42974-37.43868-14.45415-37.43868-42.08027,0-29.55441,22.8391-46.45717,42.98957-61.37025Zm-204.20895,58.59455c0-21.68827,10.18745-46.22872,32.93295-52.37389,3.66688,2.69116,6.72387,4.81168,9.57404,6.64335,20.21991,14.3364,35.68751,26.90553,35.68751,47.06203,0,27.31313-16.33053,41.60423-36.10409,41.60423-10.16581,0-23.24125-3.73078-30.12162-10.50598-7.82992-7.70915-11.9688-18.92364-11.9688-32.42975Z"/><path class="cls-1" d="M297.6377,533.24876c-62.90576,0-122.04639-24.49609-166.52734-68.97754-44.48145-44.48145-68.97803-103.62207-68.97803-166.52734s24.49658-122.04639,68.97803-166.52734c44.48096-44.48145,103.62158-68.97803,166.52734-68.97803s122.04688,24.49658,166.52734,68.97803c44.48145,44.48096,68.97852,103.62207,68.97852,166.52734s-24.49707,122.0459-68.97852,166.52734c-44.48047,44.48145-103.62109,68.97754-166.52734,68.97754Zm0-468.1333c-62.13721,0-120.55518,24.19775-164.49316,68.13525-43.9375,43.93799-68.13525,102.35645-68.13525,164.49316s24.19775,120.55469,68.13525,164.49316c43.93799,43.9375,102.35596,68.13477,164.49316,68.13477s120.55566-24.19727,164.49316-68.13477c43.9375-43.93848,68.13574-102.35645,68.13574-164.49316s-24.19824-120.55518-68.13574-164.49316c-43.9375-43.9375-102.35547-68.13525-164.49316-68.13525Z"/></svg>