<?xml version="1.0" encoding="UTF-8" standalone="no"?>
<svg
   id="Calque_1"
   viewBox="0 0 715.00002 180"
   version="1.1"
   sodipodi:docname="AbbiaCasa-04.svg"
   width="715"
   height="180"
   inkscape:version="1.2.1 (9c6d41e410, 2022-07-14)"
   xmlns:inkscape="http://www.inkscape.org/namespaces/inkscape"
   xmlns:sodipodi="http://sodipodi.sourceforge.net/DTD/sodipodi-0.dtd"
   xmlns="http://www.w3.org/2000/svg"
   xmlns:svg="http://www.w3.org/2000/svg">
  <sodipodi:namedview
     id="namedview33"
     pagecolor="#ffffff"
     bordercolor="#000000"
     borderopacity="0.25"
     inkscape:showpageshadow="2"
     inkscape:pageopacity="0.0"
     inkscape:pagecheckerboard="0"
     inkscape:deskcolor="#d1d1d1"
     showgrid="false"
     inkscape:zoom="0.63550756"
     inkscape:cx="285.59849"
     inkscape:cy="346.17999"
     inkscape:window-width="1366"
     inkscape:window-height="715"
     inkscape:window-x="1358"
     inkscape:window-y="-8"
     inkscape:window-maximized="1"
     inkscape:current-layer="Calque_1" />
  <defs
     id="defs4">
    <style
       id="style2">.cls-1{fill:#1d1d1b;}</style>
  </defs>
  <g
     id="g275"
     transform="translate(-55.698595,-207.74385)">
    <path
       class="cls-1"
       d="m 514.55522,276.5434 c 10.04661,-8.07015 19.02425,-17.33581 19.02425,-29.97741 0,-18.16115 -18.61489,-37.70855 -59.48503,-37.70855 h -59.23488 v 2.82163 l 21.71944,0.16053 v 73.14366 h 25.37527 v -73.30419 h 9.71988 c 25.46546,0 37.06406,18.08371 37.06406,34.88693 0,20.19143 -11.9938,33.37885 -24.69206,47.34061 -12.65435,13.9136 -25.73931,28.30125 -25.3951,50.08386 l 0.0586,3.46093 c 0.0699,3.99636 0.14212,8.1287 0.10104,10.48666 -0.22192,12.68882 -11.84704,21.53048 -19.03614,21.53048 -7.07673,0 -15.68737,-7.29581 -15.68737,-27.77337 v -70.04771 c 0,-17.34714 -5.57634,-32.1654 -18.11076,-42.85415 -11.38566,-9.70949 -26.59156,-15.05717 -42.81638,-15.05717 -12.64679,0 -24.22273,2.6847 -32.59507,7.55833 -9.81289,5.71219 -15.36521,14.29588 -15.36521,24.74855 0,14.58595 12.21401,25.13133 22.52456,32.71516 0.37584,0.28896 0.76537,0.57509 1.15679,0.86122 -32.59412,10.53294 -52.55797,32.20156 -52.55797,55.97669 0,12.04385 4.68193,22.72949 15.46228,30.28121 9.55604,6.69333 22.57584,10.53199 35.72076,10.53199 13.18364,0 25.42278,-3.55676 34.19693,-10.43518 10.09336,-7.91151 15.64972,-19.73709 15.64972,-33.89999 0,-21.70518 -18.96221,-34.96687 -35.37448,-46.60655 -4.842,-3.35422 -8.92476,-6.31372 -12.48768,-9.05319 -10.37901,-7.78402 -20.98891,-17.48501 -20.98891,-30.41086 0,-13.53209 11.78224,-28.98143 44.74464,-28.98143 23.61553,0 35.5036,13.93654 35.5036,42.11691 v 82.55616 c 0,24.0197 15.26445,34.77172 30.39291,34.77172 13.6813,0 31.6546,-9.3752 32.5569,-26.77995 5.72966,16.73995 21.11073,26.94332 41.18884,26.94332 18.50488,0 34.25093,-6.26556 45.53602,-18.1196 9.94321,-10.44417 15.64595,-24.81576 15.64595,-39.43005 0,-21.82133 -13.00752,-48.43885 -49.51538,-52.5372 z m -12.26387,9.22883 c 3.13797,-2.32208 6.10644,-4.51951 8.99181,-6.76794 13.75306,3.20219 28.42826,20.15177 28.42826,50.0763 0,37.1363 -21.95147,54.26056 -42.62846,53.75915 -16.62814,-0.40323 -35.12867,-13.56231 -35.12867,-39.48387 0,-27.73088 21.42991,-43.59072 40.33707,-57.58364 z m -191.60906,54.97921 c 0,-20.35008 9.55887,-43.37636 30.90096,-49.14237 3.44063,2.52511 6.309,4.51479 8.98331,6.23345 18.97232,13.45183 33.48556,25.24543 33.48556,44.15825 0,25.62788 -15.32292,39.03721 -33.87643,39.03721 -9.53857,0 -21.80724,-3.50059 -28.26308,-9.85775 -7.3468,-7.23349 -11.23032,-17.75603 -11.23032,-30.4288 z"
       id="path6" />
    <g
       id="g30">
      <g
         id="g18">
        <path
           class="cls-1"
           d="m 57.41099,312.75267 14.11719,-39.91211 h 8.50391 l 14.00293,39.91211 h -4.98926 l -3.34473,-9.58105 H 65.85826 l -3.40137,9.58105 z m 9.80859,-13.71973 h 17.06445 l -8.50391,-24.49121 -8.56055,24.49121 z"
           id="path8" />
        <path
           class="cls-1"
           d="m 134.14438,306.34642 c -1.2666,2.34375 -3.00391,4.18652 -5.21582,5.52734 -2.21094,1.34082 -4.67676,2.0127 -7.39844,2.0127 -2.38086,0 -4.53516,-0.53809 -6.46289,-1.61523 -1.92676,-1.07715 -3.51465,-2.56055 -4.76172,-4.45117 v 4.93262 h -4.19531 v -41.66895 h 4.30859 v 17.8584 c 1.24707,-1.85156 2.8252,-3.30762 4.7334,-4.36621 1.9082,-1.05762 4.05371,-1.58691 6.43457,-1.58691 2.72168,0 5.1875,0.6709 7.39844,2.0127 2.21191,1.3418 3.94043,3.18457 5.1875,5.52734 1.24805,2.34375 1.87109,4.98926 1.87109,7.9375 0,2.91016 -0.63281,5.53711 -1.89941,7.87988 z m -22.47852,-2.06934 c 0.90723,1.75781 2.18262,3.14648 3.82715,4.16699 1.64355,1.02051 3.48633,1.53027 5.52734,1.53027 2.00293,0 3.81738,-0.5 5.44238,-1.50195 1.625,-1.00098 2.91016,-2.38086 3.85547,-4.13867 0.94434,-1.75781 1.41699,-3.71289 1.41699,-5.86719 0,-2.11719 -0.46289,-4.0625 -1.38867,-5.83984 -0.92676,-1.77637 -2.21094,-3.16504 -3.85547,-4.16699 -1.64355,-1.00098 -3.46777,-1.50195 -5.4707,-1.50195 -2.04102,0 -3.88379,0.50098 -5.52734,1.50195 -1.64453,1.00195 -2.91992,2.39062 -3.82715,4.16699 -0.90723,1.77734 -1.36035,3.72266 -1.36035,5.83984 0,2.11621 0.45312,4.05273 1.36035,5.81055 z"
           id="path10" />
        <path
           class="cls-1"
           d="m 177.17368,306.34642 c -1.2666,2.34375 -3.00391,4.18652 -5.21582,5.52734 -2.21094,1.34082 -4.67676,2.0127 -7.39844,2.0127 -2.38086,0 -4.53516,-0.53809 -6.46289,-1.61523 -1.92676,-1.07715 -3.51465,-2.56055 -4.76172,-4.45117 v 4.93262 h -4.19531 v -41.66895 h 4.30859 v 17.8584 c 1.24707,-1.85156 2.8252,-3.30762 4.7334,-4.36621 1.9082,-1.05762 4.05371,-1.58691 6.43457,-1.58691 2.72168,0 5.1875,0.6709 7.39844,2.0127 2.21191,1.3418 3.94043,3.18457 5.1875,5.52734 1.24805,2.34375 1.87109,4.98926 1.87109,7.9375 0,2.91016 -0.63281,5.53711 -1.89941,7.87988 z m -22.47852,-2.06934 c 0.90723,1.75781 2.18262,3.14648 3.82715,4.16699 1.64355,1.02051 3.48633,1.53027 5.52734,1.53027 2.00293,0 3.81738,-0.5 5.44238,-1.50195 1.625,-1.00098 2.91016,-2.38086 3.85547,-4.13867 0.94434,-1.75781 1.41699,-3.71289 1.41699,-5.86719 0,-2.11719 -0.46289,-4.0625 -1.38867,-5.83984 -0.92676,-1.77637 -2.21094,-3.16504 -3.85547,-4.16699 -1.64355,-1.00098 -3.46777,-1.50195 -5.4707,-1.50195 -2.04102,0 -3.88379,0.50098 -5.52734,1.50195 -1.64453,1.00195 -2.91992,2.39062 -3.82715,4.16699 -0.90723,1.77734 -1.36035,3.72266 -1.36035,5.83984 0,2.11621 0.45312,4.05273 1.36035,5.81055 z"
           id="path12" />
        <path
           class="cls-1"
           d="m 196.61802,277.85814 c -0.62402,0.58691 -1.4082,0.87891 -2.35254,0.87891 -0.87012,0 -1.60742,-0.29199 -2.21094,-0.87891 -0.60547,-0.58594 -0.90723,-1.35059 -0.90723,-2.2959 0,-0.90723 0.30176,-1.65332 0.90723,-2.23926 0.60352,-0.58594 1.34082,-0.87891 2.21094,-0.87891 0.94434,0 1.72852,0.29297 2.35254,0.87891 0.62402,0.58594 0.91602,1.33203 0.87891,2.23926 0.0371,0.94531 -0.25488,1.70996 -0.87891,2.2959 z m -4.50684,34.89453 v -28.62988 h 4.30859 v 28.62988 z"
           id="path14" />
        <path
           class="cls-1"
           d="m 226.89243,312.32786 c -1.90918,1.03906 -4.11035,1.55859 -6.60547,1.55859 -2.11719,0 -4.03418,-0.36816 -5.75391,-1.10547 -1.7207,-0.7373 -3.05273,-1.77637 -3.99707,-3.11816 -0.94531,-1.34082 -1.41699,-2.84375 -1.41699,-4.50684 0,-1.5498 0.4248,-2.95703 1.27539,-4.22363 0.85059,-1.26562 2.13477,-2.33301 3.85547,-3.20312 1.71875,-0.86914 3.80664,-1.41797 6.26465,-1.64453 l 8.56055,-1.07715 c 0.7168,-0.0752 1.29395,-0.30176 1.72852,-0.67969 0.43457,-0.37793 0.65234,-0.86914 0.65234,-1.47461 0,-1.20898 -0.3877,-2.25781 -1.16211,-3.14648 -0.77539,-0.8877 -1.80566,-1.56738 -3.08984,-2.04102 -1.28516,-0.47168 -2.64648,-0.70801 -4.08203,-0.70801 -1.77734,0 -3.35449,0.33105 -4.7334,0.99219 -1.38086,0.66113 -2.47656,1.51172 -3.28906,2.55078 -0.8125,1.04004 -1.25684,2.10742 -1.33203,3.20312 l -3.85449,-1.64453 c 0.15039,-1.58691 0.82129,-3.07031 2.01172,-4.4502 1.19141,-1.37891 2.76855,-2.49414 4.73438,-3.34473 1.96484,-0.85059 4.15723,-1.27539 6.57617,-1.27539 2.41894,0 4.56348,0.44434 6.43457,1.33203 1.87109,0.88867 3.34473,2.12598 4.42188,3.71387 1.07715,1.58691 1.61621,3.43945 1.61621,5.55566 v 19.16211 h -4.36523 v -4.70508 c -1.05859,1.81348 -2.54297,3.24121 -4.4502,4.28027 z m -12.50098,-4.81934 c 0.6416,0.77539 1.54883,1.37988 2.7207,1.81445 1.17187,0.43457 2.47559,0.65137 3.91211,0.65137 1.96484,0 3.73242,-0.40527 5.30078,-1.21875 1.56836,-0.8125 2.79688,-1.93652 3.68555,-3.37305 0.88672,-1.43555 1.33203,-3.06152 1.33203,-4.87598 v -1.9834 l -10.77148,1.24707 c -1.58789,0.15137 -2.91113,0.48145 -3.96875,0.99219 -1.05859,0.50977 -1.85254,1.11523 -2.38086,1.81348 -0.53027,0.7002 -0.79395,1.48438 -0.79395,2.35352 0,0.94434 0.32031,1.80469 0.96387,2.5791 z"
           id="path16" />
      </g>
      <g
         id="g28">
        <path
           class="cls-1"
           d="m 652.73911,306.1765 c -1.83398,2.45703 -4.1582,4.40332 -6.97363,5.83887 -2.81543,1.43652 -5.86719,2.1543 -9.15527,2.1543 -4.00684,0 -7.63477,-0.91602 -10.88574,-2.74902 -3.25097,-1.833 -5.77344,-4.37402 -7.56836,-7.625 -1.79492,-3.25098 -2.71191,-6.91699 -2.74902,-10.99902 0.0371,-4.11914 0.89746,-7.80371 2.5791,-11.05469 1.68164,-3.25 4.03418,-5.79199 7.05859,-7.625 3.02344,-1.83301 6.4248,-2.75 10.2041,-2.75 2.72168,0 5.30078,0.57617 7.73926,1.72949 2.4375,1.15332 4.53516,2.76855 6.29297,4.84668 1.75684,2.0791 3.01367,4.42188 3.76953,7.03027 l -4.47852,1.02051 c -0.5293,-2.04102 -1.45508,-3.8457 -2.77832,-5.41406 -1.32324,-1.56836 -2.89062,-2.79688 -4.70508,-3.68555 -1.81445,-0.8877 -3.74219,-1.33203 -5.78223,-1.33203 -2.91113,0 -5.51953,0.74707 -7.82422,2.23926 -2.30566,1.49316 -4.10156,3.53418 -5.38574,6.12305 -1.28516,2.58887 -1.94727,5.54688 -1.98438,8.87207 0.0371,3.25098 0.76562,6.17969 2.18262,8.78711 1.41797,2.6084 3.37305,4.65918 5.86816,6.15137 2.49414,1.49414 5.30957,2.23926 8.44727,2.23926 2.53125,0 4.875,-0.58496 7.0293,-1.75684 2.1543,-1.1709 3.94922,-2.75 5.38672,-4.73438 1.43555,-1.98438 2.30469,-4.18555 2.60742,-6.60449 l 4.53516,1.13379 c -0.45312,2.98633 -1.59668,5.70703 -3.42969,8.16406 z"
           id="path20" />
        <path
           class="cls-1"
           d="m 685.16684,312.32786 c -1.90918,1.03906 -4.11035,1.55859 -6.60547,1.55859 -2.11719,0 -4.03418,-0.36816 -5.75391,-1.10547 -1.7207,-0.7373 -3.05273,-1.77637 -3.99707,-3.11816 -0.94531,-1.34082 -1.41699,-2.84375 -1.41699,-4.50684 0,-1.5498 0.4248,-2.95703 1.27539,-4.22363 0.85059,-1.26562 2.13477,-2.33301 3.85547,-3.20312 1.71875,-0.86914 3.80664,-1.41797 6.26465,-1.64453 l 8.56055,-1.07715 c 0.7168,-0.0752 1.29395,-0.30176 1.72852,-0.67969 0.43457,-0.37793 0.65234,-0.86914 0.65234,-1.47461 0,-1.20898 -0.3877,-2.25781 -1.16211,-3.14648 -0.77539,-0.8877 -1.80566,-1.56738 -3.08984,-2.04102 -1.28516,-0.47168 -2.64648,-0.70801 -4.08203,-0.70801 -1.77734,0 -3.35449,0.33105 -4.7334,0.99219 -1.38086,0.66113 -2.47656,1.51172 -3.28906,2.55078 -0.8125,1.04004 -1.25684,2.10742 -1.33203,3.20312 l -3.85449,-1.64453 c 0.15039,-1.58691 0.82129,-3.07031 2.01172,-4.4502 1.19141,-1.37891 2.76855,-2.49414 4.73438,-3.34473 1.96484,-0.85059 4.15723,-1.27539 6.57617,-1.27539 2.41894,0 4.56348,0.44434 6.43457,1.33203 1.87109,0.88867 3.34473,2.12598 4.42188,3.71387 1.07715,1.58691 1.61621,3.43945 1.61621,5.55566 v 19.16211 h -4.36523 v -4.70508 c -1.05859,1.81348 -2.54297,3.24121 -4.4502,4.28027 z m -12.50098,-4.81934 c 0.6416,0.77539 1.54883,1.37988 2.7207,1.81445 1.17187,0.43457 2.47559,0.65137 3.91211,0.65137 1.96484,0 3.73242,-0.40527 5.30078,-1.21875 1.56836,-0.8125 2.79688,-1.93652 3.68555,-3.37305 0.88672,-1.43555 1.33203,-3.06152 1.33203,-4.87598 v -1.9834 l -10.77148,1.24707 c -1.58789,0.15137 -2.91113,0.48145 -3.96875,0.99219 -1.05859,0.50977 -1.85254,1.11523 -2.38086,1.81348 -0.53027,0.7002 -0.79395,1.48438 -0.79395,2.35352 0,0.94434 0.32031,1.80469 0.96387,2.5791 z"
           id="path22" />
        <path
           class="cls-1"
           d="m 730.37876,309.32298 c -1.05859,1.41699 -2.52344,2.53223 -4.39453,3.34473 -1.87012,0.8125 -3.93945,1.21875 -6.20703,1.21875 -2.34473,0 -4.47949,-0.4248 -6.40625,-1.27539 -1.92773,-0.85059 -3.52539,-2.0127 -4.79102,-3.48633 -1.2666,-1.47461 -2.03223,-3.15527 -2.2959,-5.0459 l 4.19531,-0.85059 c 0.11328,1.32324 0.59473,2.49414 1.44531,3.51465 0.85058,1.02051 1.95605,1.82422 3.31641,2.41016 1.36133,0.58594 2.91016,0.87793 4.64941,0.87793 1.43555,0 2.75781,-0.22656 3.96777,-0.67969 1.20996,-0.4541 2.16406,-1.06738 2.86328,-1.84277 0.69922,-0.77441 1.04883,-1.63477 1.04883,-2.5791 -0.0381,-1.02051 -0.43457,-1.82324 -1.19043,-2.41016 -0.75684,-0.58496 -1.69238,-1.04883 -2.80664,-1.38867 -1.11523,-0.33984 -2.5791,-0.68066 -4.39355,-1.02051 -2.49414,-0.45312 -4.50684,-0.92578 -6.03711,-1.41699 -1.53125,-0.49121 -2.83496,-1.28516 -3.91211,-2.38184 -1.07715,-1.0957 -1.59766,-2.66406 -1.55957,-4.70508 -0.0381,-1.58691 0.40625,-3.05176 1.33301,-4.39355 0.92578,-1.34082 2.18262,-2.38086 3.76953,-3.11816 1.58789,-0.7373 3.40137,-1.10547 5.44238,-1.10547 1.96484,0 3.76074,0.33105 5.38574,0.99219 1.625,0.66114 2.9668,1.59668 4.02539,2.80566 1.05762,1.21094 1.77637,2.57129 2.1543,4.08203 l -4.13867,1.19043 c -0.22656,-1.54883 -1.03027,-2.80566 -2.40918,-3.76953 -1.37988,-0.96387 -3.05273,-1.44531 -5.01758,-1.44531 -1.24707,0 -2.34375,0.20801 -3.28809,0.62305 -0.94531,0.41602 -1.69141,0.99219 -2.23926,1.72949 -0.54785,0.73633 -0.82227,1.54004 -0.82227,2.40918 -0.0381,1.05859 0.32129,1.8623 1.07715,2.40918 0.75586,0.54883 1.42676,0.89844 2.0127,1.04883 0.58594,0.15137 2.37109,0.49219 5.35742,1.02051 2.26758,0.4541 4.21387,0.97363 5.83984,1.55957 1.62402,0.58594 2.95703,1.43652 3.99707,2.55078 1.03906,1.11523 1.57715,2.56152 1.61523,4.33691 0,1.77734 -0.5293,3.37305 -1.58691,4.79102 z"
           id="path24" />
        <path
           class="cls-1"
           d="m 760.17075,312.32786 c -1.90918,1.03906 -4.11035,1.55859 -6.60547,1.55859 -2.11719,0 -4.03418,-0.36816 -5.75391,-1.10547 -1.7207,-0.7373 -3.05273,-1.77637 -3.99707,-3.11816 -0.94531,-1.34082 -1.41699,-2.84375 -1.41699,-4.50684 0,-1.5498 0.4248,-2.95703 1.27539,-4.22363 0.85059,-1.26562 2.13477,-2.33301 3.85547,-3.20312 1.71875,-0.86914 3.80664,-1.41797 6.26465,-1.64453 l 8.56055,-1.07715 c 0.7168,-0.0752 1.29395,-0.30176 1.72852,-0.67969 0.43457,-0.37793 0.65234,-0.86914 0.65234,-1.47461 0,-1.20898 -0.3877,-2.25781 -1.16211,-3.14648 -0.77539,-0.8877 -1.80566,-1.56738 -3.08984,-2.04102 -1.28516,-0.47168 -2.64648,-0.70801 -4.08203,-0.70801 -1.77734,0 -3.35449,0.33105 -4.7334,0.99219 -1.38086,0.66113 -2.47656,1.51172 -3.28906,2.55078 -0.8125,1.04004 -1.25684,2.10742 -1.33203,3.20312 l -3.85449,-1.64453 c 0.15039,-1.58691 0.82129,-3.07031 2.01172,-4.4502 1.19141,-1.37891 2.76855,-2.49414 4.73438,-3.34473 1.96484,-0.85059 4.15723,-1.27539 6.57617,-1.27539 2.41894,0 4.56348,0.44434 6.43457,1.33203 1.87109,0.88867 3.34473,2.12598 4.42188,3.71387 1.07715,1.58691 1.61621,3.43945 1.61621,5.55566 v 19.16211 h -4.36523 v -4.70508 c -1.05859,1.81348 -2.54297,3.24121 -4.4502,4.28027 z m -12.50098,-4.81934 c 0.6416,0.77539 1.54883,1.37988 2.7207,1.81445 1.17187,0.43457 2.47559,0.65137 3.91211,0.65137 1.96484,0 3.73242,-0.40527 5.30078,-1.21875 1.56836,-0.8125 2.79688,-1.93652 3.68555,-3.37305 0.88672,-1.43555 1.33203,-3.06152 1.33203,-4.87598 v -1.9834 l -10.77148,1.24707 c -1.58789,0.15137 -2.91113,0.48145 -3.96875,0.99219 -1.05859,0.50977 -1.85254,1.11523 -2.38086,1.81348 -0.53027,0.7002 -0.79395,1.48438 -0.79395,2.35352 0,0.94434 0.32031,1.80469 0.96387,2.5791 z"
           id="path26" />
      </g>
    </g>
  </g>
</svg>
