<?xml version="1.0" encoding="utf-8"?>
<!-- Generator: Adobe Illustrator 27.2.0, SVG Export Plug-In . SVG Version: 6.00 Build 0)  -->
<svg version="1.1" id="Calque_1" xmlns="http://www.w3.org/2000/svg" xmlns:xlink="http://www.w3.org/1999/xlink" x="0px" y="0px"
	 viewBox="0 0 1090 1090" style="enable-background:new 0 0 1090 1090;" xml:space="preserve">
<style type="text/css">
	.st0{fill:#1D1D1B;}
</style>
<g>
	<g>
		<path class="st0" d="M249.7,143l46.8-132.2h28.2L371,143h-16.5l-11.1-31.7h-65.7L266.4,143H249.7z M282.2,97.6h56.5l-28.2-81.1
			L282.2,97.6z"/>
		<path class="st0" d="M503.9,121.8c-4.2,7.8-10,13.9-17.3,18.3c-7.3,4.4-15.5,6.7-24.5,6.7c-7.9,0-15-1.8-21.4-5.4
			c-6.4-3.6-11.6-8.5-15.8-14.7V143H411V5h14.3v59.2c4.1-6.1,9.4-11,15.7-14.5c6.3-3.5,13.4-5.3,21.3-5.3c9,0,17.2,2.2,24.5,6.7
			c7.3,4.4,13.1,10.5,17.2,18.3c4.1,7.8,6.2,16.5,6.2,26.3C510.2,105.3,508.1,114,503.9,121.8z M429.4,115c3,5.8,7.2,10.4,12.7,13.8
			c5.4,3.4,11.5,5.1,18.3,5.1c6.6,0,12.6-1.7,18-5c5.4-3.3,9.6-7.9,12.8-13.7c3.1-5.8,4.7-12.3,4.7-19.4c0-7-1.5-13.5-4.6-19.3
			c-3.1-5.9-7.3-10.5-12.8-13.8c-5.4-3.3-11.5-5-18.1-5c-6.8,0-12.9,1.7-18.3,5c-5.4,3.3-9.7,7.9-12.7,13.8
			c-3,5.9-4.5,12.3-4.5,19.3C424.9,102.7,426.4,109.1,429.4,115z"/>
		<path class="st0" d="M646.4,121.8c-4.2,7.8-10,13.9-17.3,18.3c-7.3,4.4-15.5,6.7-24.5,6.7c-7.9,0-15-1.8-21.4-5.4
			c-6.4-3.6-11.6-8.5-15.8-14.7V143h-13.9V5h14.3v59.2c4.1-6.1,9.4-11,15.7-14.5c6.3-3.5,13.4-5.3,21.3-5.3c9,0,17.2,2.2,24.5,6.7
			c7.3,4.4,13.1,10.5,17.2,18.3c4.1,7.8,6.2,16.5,6.2,26.3C652.7,105.3,650.6,114,646.4,121.8z M571.9,115c3,5.8,7.2,10.4,12.7,13.8
			c5.4,3.4,11.5,5.1,18.3,5.1c6.6,0,12.6-1.7,18-5c5.4-3.3,9.6-7.9,12.8-13.7c3.1-5.8,4.7-12.3,4.7-19.4c0-7-1.5-13.5-4.6-19.3
			c-3.1-5.9-7.3-10.5-12.8-13.8c-5.4-3.3-11.5-5-18.1-5c-6.8,0-12.9,1.7-18.3,5c-5.4,3.3-9.7,7.9-12.7,13.8
			c-3,5.9-4.5,12.3-4.5,19.3C567.4,102.7,568.9,109.1,571.9,115z"/>
		<path class="st0" d="M710.8,27.4c-2.1,1.9-4.7,2.9-7.8,2.9c-2.9,0-5.3-1-7.3-2.9c-2-1.9-3-4.5-3-7.6c0-3,1-5.5,3-7.4
			c2-1.9,4.4-2.9,7.3-2.9c3.1,0,5.7,1,7.8,2.9s3,4.4,2.9,7.4C713.8,23,712.9,25.5,710.8,27.4z M695.9,143V48.2h14.3V143H695.9z"/>
		<path class="st0" d="M811.1,141.6c-6.3,3.4-13.6,5.2-21.9,5.2c-7,0-13.4-1.2-19.1-3.7c-5.7-2.4-10.1-5.9-13.2-10.3
			c-3.1-4.4-4.7-9.4-4.7-14.9c0-5.1,1.4-9.8,4.2-14c2.8-4.2,7.1-7.7,12.8-10.6c5.7-2.9,12.6-4.7,20.8-5.4l28.4-3.6
			c2.4-0.2,4.3-1,5.7-2.3c1.4-1.3,2.2-2.9,2.2-4.9c0-4-1.3-7.5-3.8-10.4c-2.6-2.9-6-5.2-10.2-6.8c-4.3-1.6-8.8-2.3-13.5-2.3
			c-5.9,0-11.1,1.1-15.7,3.3c-4.6,2.2-8.2,5-10.9,8.4c-2.7,3.4-4.2,7-4.4,10.6l-12.8-5.4c0.5-5.3,2.7-10.2,6.7-14.7
			c3.9-4.6,9.2-8.3,15.7-11.1c6.5-2.8,13.8-4.2,21.8-4.2c8,0,15.1,1.5,21.3,4.4c6.2,2.9,11.1,7,14.6,12.3c3.6,5.3,5.4,11.4,5.4,18.4
			V143h-14.5v-15.6C822.3,133.4,817.4,138.2,811.1,141.6z M769.7,125.7c2.1,2.6,5.1,4.6,9,6c3.9,1.4,8.2,2.2,13,2.2
			c6.5,0,12.4-1.3,17.6-4c5.2-2.7,9.3-6.4,12.2-11.2c2.9-4.8,4.4-10.1,4.4-16.2v-6.6l-35.7,4.1c-5.3,0.5-9.6,1.6-13.1,3.3
			c-3.5,1.7-6.1,3.7-7.9,6c-1.8,2.3-2.6,4.9-2.6,7.8C766.5,120.2,767.6,123.1,769.7,125.7z"/>
	</g>
	<g>
		<path class="st0" d="M414.3,1058.5c-6.1,8.1-13.8,14.6-23.1,19.3c-9.3,4.8-19.4,7.1-30.3,7.1c-13.3,0-25.3-3-36.1-9.1
			c-10.8-6.1-19.1-14.5-25.1-25.3c-5.9-10.8-9-22.9-9.1-36.4c0.1-13.6,3-25.8,8.5-36.6c5.6-10.8,13.4-19.2,23.4-25.3
			c10-6.1,21.3-9.1,33.8-9.1c9,0,17.6,1.9,25.6,5.7c8.1,3.8,15,9.2,20.8,16.1c5.8,6.9,10,14.6,12.5,23.3l-14.8,3.4
			c-1.8-6.8-4.8-12.7-9.2-17.9c-4.4-5.2-9.6-9.3-15.6-12.2c-6-2.9-12.4-4.4-19.2-4.4c-9.6,0-18.3,2.5-25.9,7.4
			c-7.6,4.9-13.6,11.7-17.8,20.3c-4.3,8.6-6.5,18.4-6.6,29.4c0.1,10.8,2.5,20.5,7.2,29.1c4.7,8.6,11.2,15.4,19.4,20.4
			c8.3,4.9,17.6,7.4,28,7.4c8.4,0,16.1-1.9,23.3-5.8c7.1-3.9,13.1-9.1,17.8-15.7c4.8-6.6,7.6-13.9,8.6-21.9l15,3.8
			C424.2,1041.4,420.4,1050.4,414.3,1058.5z"/>
		<path class="st0" d="M521.7,1078.9c-6.3,3.4-13.6,5.2-21.9,5.2c-7,0-13.4-1.2-19.1-3.7c-5.7-2.4-10.1-5.9-13.2-10.3
			c-3.1-4.4-4.7-9.4-4.7-14.9c0-5.1,1.4-9.8,4.2-14c2.8-4.2,7.1-7.7,12.8-10.6c5.7-2.9,12.6-4.7,20.8-5.4l28.4-3.6
			c2.4-0.2,4.3-1,5.7-2.3c1.4-1.3,2.2-2.9,2.2-4.9c0-4-1.3-7.5-3.8-10.4c-2.6-2.9-6-5.2-10.2-6.8c-4.3-1.6-8.8-2.3-13.5-2.3
			c-5.9,0-11.1,1.1-15.7,3.3c-4.6,2.2-8.2,5-10.9,8.4c-2.7,3.4-4.2,7-4.4,10.6l-12.8-5.4c0.5-5.3,2.7-10.2,6.7-14.7
			c3.9-4.6,9.2-8.3,15.7-11.1c6.5-2.8,13.8-4.2,21.8-4.2c8,0,15.1,1.5,21.3,4.4c6.2,2.9,11.1,7,14.6,12.3c3.6,5.3,5.4,11.4,5.4,18.4
			v63.5h-14.5v-15.6C532.9,1070.7,528,1075.5,521.7,1078.9z M480.3,1062.9c2.1,2.6,5.1,4.6,9,6s8.2,2.2,13,2.2
			c6.5,0,12.4-1.3,17.6-4c5.2-2.7,9.3-6.4,12.2-11.2c2.9-4.8,4.4-10.1,4.4-16.2v-6.6l-35.7,4.1c-5.3,0.5-9.6,1.6-13.1,3.3
			c-3.5,1.7-6.1,3.7-7.9,6c-1.8,2.3-2.6,4.9-2.6,7.8C477.1,1057.5,478.2,1060.4,480.3,1062.9z"/>
		<path class="st0" d="M671.5,1068.9c-3.5,4.7-8.4,8.4-14.6,11.1c-6.2,2.7-13,4-20.6,4c-7.8,0-14.8-1.4-21.2-4.2
			c-6.4-2.8-11.7-6.7-15.9-11.5c-4.2-4.9-6.7-10.5-7.6-16.7l13.9-2.8c0.4,4.4,2,8.3,4.8,11.6s6.5,6,11,8c4.5,1.9,9.6,2.9,15.4,2.9
			c4.8,0,9.1-0.8,13.1-2.3c4-1.5,7.2-3.5,9.5-6.1c2.3-2.6,3.5-5.4,3.5-8.5c-0.1-3.4-1.4-6-3.9-8c-2.5-1.9-5.6-3.5-9.3-4.6
			c-3.7-1.1-8.5-2.3-14.6-3.4c-8.3-1.5-14.9-3.1-20-4.7c-5.1-1.6-9.4-4.3-13-7.9c-3.6-3.6-5.3-8.8-5.2-15.6
			c-0.1-5.3,1.3-10.1,4.4-14.6c3.1-4.4,7.2-7.9,12.5-10.3c5.3-2.4,11.3-3.7,18-3.7c6.5,0,12.5,1.1,17.8,3.3
			c5.4,2.2,9.8,5.3,13.3,9.3c3.5,4,5.9,8.5,7.1,13.5l-13.7,3.9c-0.8-5.1-3.4-9.3-8-12.5c-4.6-3.2-10.1-4.8-16.6-4.8
			c-4.1,0-7.8,0.7-10.9,2.1c-3.1,1.4-5.6,3.3-7.4,5.7c-1.8,2.4-2.7,5.1-2.7,8c-0.1,3.5,1.1,6.2,3.6,8c2.5,1.8,4.7,3,6.7,3.5
			c1.9,0.5,7.9,1.6,17.7,3.4c7.5,1.5,14,3.2,19.3,5.2c5.4,1.9,9.8,4.8,13.2,8.4c3.4,3.7,5.2,8.5,5.4,14.4
			C676.7,1059,675,1064.2,671.5,1068.9z"/>
		<path class="st0" d="M770.2,1078.9c-6.3,3.4-13.6,5.2-21.9,5.2c-7,0-13.4-1.2-19.1-3.7c-5.7-2.4-10.1-5.9-13.2-10.3
			c-3.1-4.4-4.7-9.4-4.7-14.9c0-5.1,1.4-9.8,4.2-14c2.8-4.2,7.1-7.7,12.8-10.6c5.7-2.9,12.6-4.7,20.8-5.4l28.4-3.6
			c2.4-0.2,4.3-1,5.7-2.3c1.4-1.3,2.2-2.9,2.2-4.9c0-4-1.3-7.5-3.8-10.4c-2.6-2.9-6-5.2-10.2-6.8c-4.3-1.6-8.8-2.3-13.5-2.3
			c-5.9,0-11.1,1.1-15.7,3.3c-4.6,2.2-8.2,5-10.9,8.4c-2.7,3.4-4.2,7-4.4,10.6l-12.8-5.4c0.5-5.3,2.7-10.2,6.7-14.7
			c3.9-4.6,9.2-8.3,15.7-11.1c6.5-2.8,13.8-4.2,21.8-4.2s15.1,1.5,21.3,4.4c6.2,2.9,11.1,7,14.6,12.3c3.6,5.3,5.4,11.4,5.4,18.4
			v63.5h-14.5v-15.6C781.4,1070.7,776.5,1075.5,770.2,1078.9z M728.8,1062.9c2.1,2.6,5.1,4.6,9,6c3.9,1.4,8.2,2.2,13,2.2
			c6.5,0,12.4-1.3,17.6-4c5.2-2.7,9.3-6.4,12.2-11.2c2.9-4.8,4.4-10.1,4.4-16.2v-6.6l-35.7,4.1c-5.3,0.5-9.6,1.6-13.1,3.3
			c-3.5,1.7-6.1,3.7-7.9,6c-1.8,2.3-2.6,4.9-2.6,7.8C725.6,1057.5,726.6,1060.4,728.8,1062.9z"/>
	</g>
	<path class="st0" d="M841,483.1c33.3-26.7,63-57.4,63-99.3c0-60.2-61.7-124.9-197-124.9H510.8v9.3l71.9,0.5V511h84.1V268.2H699
		c84.4,0,122.8,59.9,122.8,115.6c0,66.9-39.7,110.6-81.8,156.8c-41.9,46.1-85.3,93.7-84.1,165.9l0.2,11.5
		c0.2,13.2,0.5,26.9,0.3,34.7c-0.7,42-39.2,71.3-63.1,71.3c-23.4,0-52-24.2-52-92V500c0-57.5-18.5-106.5-60-142
		c-37.7-32.2-88.1-49.9-141.8-49.9c-41.9,0-80.2,8.9-108,25c-32.5,18.9-50.9,47.4-50.9,82c0,48.3,40.5,83.2,74.6,108.4
		c1.2,1,2.5,1.9,3.8,2.9C151.1,561.3,85,633,85,711.8c0,39.9,15.5,75.3,51.2,100.3C167.9,834.3,211,847,254.5,847
		c43.7,0,84.2-11.8,113.3-34.6c33.4-26.2,51.8-65.4,51.8-112.3c0-71.9-62.8-115.8-117.2-154.4c-16-11.1-29.6-20.9-41.4-30
		c-34.4-25.8-69.5-57.9-69.5-100.7c0-44.8,39-96,148.2-96c78.2,0,117.6,46.2,117.6,139.5V732c0,79.6,50.6,115.2,100.7,115.2
		c45.3,0,104.9-31.1,107.8-88.7c19,55.4,69.9,89.2,136.4,89.2c61.3,0,113.5-20.8,150.8-60c32.9-34.6,51.8-82.2,51.8-130.6
		C1005,584.8,961.9,496.6,841,483.1L841,483.1z M800.4,513.6c10.4-7.7,20.2-15,29.8-22.4c45.6,10.6,94.2,66.8,94.2,165.9
		c0,123-72.7,179.7-141.2,178.1c-55.1-1.3-116.4-44.9-116.4-130.8C666.8,612.5,737.7,560,800.4,513.6L800.4,513.6z M165.7,695.7
		c0-67.4,31.7-143.7,102.4-162.8c11.4,8.4,20.9,15,29.8,20.6c62.8,44.6,110.9,83.6,110.9,146.3c0,84.9-50.8,129.3-112.2,129.3
		c-31.6,0-72.2-11.6-93.6-32.7C178.5,772.6,165.7,737.7,165.7,695.7z"/>
</g>
</svg>
