<?xml version="1.0" encoding="utf-8"?>
<!-- Generator: Adobe Illustrator 27.2.0, SVG Export Plug-In . SVG Version: 6.00 Build 0)  -->
<svg version="1.1" id="Calque_1" xmlns="http://www.w3.org/2000/svg" xmlns:xlink="http://www.w3.org/1999/xlink" x="0px" y="0px"
	 viewBox="0 0 4400 1090" style="enable-background:new 0 0 4400 1090;" xml:space="preserve">
<style type="text/css">
	.st0{fill:#1D1D1B;}
</style>
<g>
	<path class="st0" d="M2815.8,416.2c61-49,115.6-105.3,115.6-182.1C2931.3,123.8,2818.2,5,2570,5h-359.9v17.1l131.9,1v444.4h154.2
		V22.1h59c154.7,0,225.2,109.9,225.2,211.9c0,122.7-72.9,202.8-150,287.6c-76.9,84.5-156.4,171.9-154.3,304.3l0.4,21
		c0.4,24.3,0.9,49.4,0.6,63.7c-1.3,77.1-72,130.8-115.6,130.8c-43,0-95.3-44.3-95.3-168.7V447.2c0-105.4-33.9-195.4-110-260.3
		c-69.2-59-161.5-91.5-260.1-91.5c-76.8,0-147.2,16.3-198,45.9c-59.6,34.7-93.3,86.8-93.3,150.4c0,88.6,74.2,152.7,136.8,198.8
		c2.3,1.8,4.6,3.5,7,5.2c-198,64-319.3,195.6-319.3,340.1c0,73.2,28.4,138.1,93.9,184c58.1,40.7,137.2,64,217,64
		c80.1,0,154.4-21.6,207.8-63.4c61.3-48.1,95.1-119.9,95.1-205.9c0-131.9-115.2-212.4-214.9-283.1c-29.4-20.4-54.2-38.4-75.9-55
		c-63.1-47.3-127.5-106.2-127.5-184.8c0-82.2,71.6-176.1,271.8-176.1c143.5,0,215.7,84.7,215.7,255.9v501.5
		c0,145.9,92.7,211.2,184.6,211.2c83.1,0,192.3-57,197.8-162.7c34.8,101.7,128.3,163.7,250.2,163.7c112.4,0,208.1-38.1,276.6-110.1
		c60.4-63.5,95.1-150.8,95.1-239.5C3116.6,602.8,3037.6,441.1,2815.8,416.2L2815.8,416.2z M2741.3,472.3
		c19.1-14.1,37.1-27.5,54.6-41.1c83.6,19.5,172.7,122.4,172.7,304.2c0,225.6-133.4,329.6-259,326.6c-101-2.4-213.4-82.4-213.4-239.9
		C2496.2,653.6,2626.4,557.3,2741.3,472.3L2741.3,472.3z M1577.2,806.3c0-123.6,58.1-263.5,187.7-298.5
		c20.9,15.3,38.3,27.4,54.6,37.9c115.3,81.7,203.4,153.4,203.4,268.3c0,155.7-93.1,237.2-205.8,237.2c-57.9,0-132.5-21.3-171.7-59.9
		C1600.8,947.2,1577.2,883.3,1577.2,806.3z"/>
	<g>
		<g>
			<path class="st0" d="M38.5,636.2l85.8-242.5H176L261,636.2h-30.3L210.4,578H89.8l-20.7,58.2H38.5z M98.1,552.8h103.7L150.1,404
				C150.1,404,98.1,552.8,98.1,552.8z"/>
			<path class="st0" d="M504.7,597.3c-7.7,14.2-18.2,25.4-31.7,33.6c-13.4,8.1-28.4,12.2-44.9,12.2c-14.5,0-27.6-3.3-39.3-9.8
				c-11.7-6.5-21.4-15.6-28.9-27v30h-25.5V383h26.2v108.5c7.6-11.2,17.2-20.1,28.8-26.5c11.6-6.4,24.6-9.6,39.1-9.6
				c16.5,0,31.5,4.1,44.9,12.2c13.4,8.2,23.9,19.3,31.5,33.6c7.6,14.2,11.4,30.3,11.4,48.2C516.2,567.1,512.4,583,504.7,597.3z
				 M368.1,584.7c5.5,10.7,13.3,19.1,23.3,25.3c10,6.2,21.2,9.3,33.6,9.3c12.2,0,23.2-3,33.1-9.1c9.9-6.1,17.7-14.5,23.4-25.1
				c5.7-10.7,8.6-22.6,8.6-35.6c0-12.9-2.8-24.7-8.4-35.5c-5.6-10.8-13.4-19.2-23.4-25.3c-10-6.1-21.1-9.1-33.2-9.1
				c-12.4,0-23.6,3-33.6,9.1c-10,6.1-17.7,14.5-23.3,25.3c-5.5,10.8-8.3,22.6-8.3,35.5C359.9,562.2,362.6,574,368.1,584.7z"/>
			<path class="st0" d="M766.1,597.3c-7.7,14.2-18.2,25.4-31.7,33.6c-13.4,8.1-28.4,12.2-44.9,12.2c-14.5,0-27.6-3.3-39.3-9.8
				c-11.7-6.5-21.4-15.6-28.9-27v30h-25.5V383H622v108.5c7.6-11.2,17.2-20.1,28.8-26.5c11.6-6.4,24.6-9.6,39.1-9.6
				c16.5,0,31.5,4.1,44.9,12.2c13.4,8.2,23.9,19.3,31.5,33.6c7.6,14.2,11.4,30.3,11.4,48.2C777.6,567.1,773.8,583,766.1,597.3z
				 M629.5,584.7c5.5,10.7,13.3,19.1,23.3,25.3c10,6.2,21.2,9.3,33.6,9.3c12.2,0,23.2-3,33.1-9.1c9.9-6.1,17.7-14.5,23.4-25.1
				c5.7-10.7,8.6-22.6,8.6-35.6c0-12.9-2.8-24.7-8.4-35.5c-5.6-10.8-13.4-19.2-23.4-25.3c-10-6.1-21.1-9.1-33.2-9.1
				c-12.4,0-23.6,3-33.6,9.1c-10,6.1-17.7,14.5-23.3,25.3c-5.5,10.8-8.3,22.6-8.3,35.5C621.3,562.2,624,574,629.5,584.7z"/>
			<path class="st0" d="M884.2,424.2c-3.8,3.6-8.6,5.3-14.3,5.3c-5.3,0-9.8-1.8-13.4-5.3c-3.7-3.6-5.5-8.2-5.5-13.9
				c0-5.5,1.8-10,5.5-13.6c3.7-3.6,8.1-5.3,13.4-5.3c5.7,0,10.5,1.8,14.3,5.3c3.8,3.6,5.6,8.1,5.3,13.6
				C889.8,416,888,420.6,884.2,424.2z M856.9,636.2V462.3H883v173.9H856.9z"/>
			<path class="st0" d="M1068.2,633.6c-11.6,6.3-25,9.5-40.1,9.5c-12.9,0-24.5-2.2-35-6.7c-10.5-4.5-18.5-10.8-24.3-18.9
				c-5.7-8.1-8.6-17.3-8.6-27.4c0-9.4,2.6-18,7.7-25.7c5.2-7.7,13-14.2,23.4-19.5c10.4-5.3,23.1-8.6,38.1-10l52-6.5
				c4.4-0.5,7.9-1.8,10.5-4.1c2.6-2.3,4-5.3,4-9c0-7.3-2.4-13.7-7.1-19.1c-4.7-5.4-11-9.5-18.8-12.4c-7.8-2.9-16.1-4.3-24.8-4.3
				c-10.8,0-20.4,2-28.8,6c-8.4,4-15,9.2-20,15.5c-4.9,6.3-7.6,12.8-8.1,19.5l-23.4-10c0.9-9.6,5-18.7,12.2-27
				c7.2-8.4,16.8-15.2,28.8-20.3c11.9-5.2,25.3-7.7,40-7.7s27.7,2.7,39.1,8.1c11.4,5.4,20.3,12.9,26.9,22.6
				c6.5,9.6,9.8,20.9,9.8,33.8v116.4h-26.5v-28.6C1088.8,618.6,1079.7,627.3,1068.2,633.6z M992.2,604.3c3.9,4.7,9.4,8.4,16.5,11
				c7.1,2.6,15,4,23.8,4c11.9,0,22.7-2.5,32.2-7.4c9.5-4.9,17-11.8,22.4-20.5c5.4-8.7,8.1-18.6,8.1-29.6v-12l-65.4,7.6
				c-9.6,0.9-17.7,2.9-24.1,6c-6.4,3.1-11.3,6.8-14.5,11c-3.2,4.3-4.8,9-4.8,14.3C986.4,594.4,988.3,599.6,992.2,604.3z"/>
		</g>
		<g>
			<path class="st0" d="M3655.2,596.2c-11.1,14.9-25.3,26.8-42.4,35.5c-17.1,8.7-35.6,13.1-55.6,13.1c-24.3,0-46.4-5.6-66.1-16.7
				c-19.8-11.1-35.1-26.6-46-46.3c-10.9-19.8-16.5-42-16.7-66.8c0.2-25,5.5-47.4,15.7-67.2c10.2-19.7,24.5-35.2,42.9-46.3
				c18.4-11.1,39-16.7,62-16.7c16.5,0,32.2,3.5,47,10.5c14.8,7,27.6,16.8,38.2,29.4c10.7,12.6,18.3,26.9,22.9,42.7l-27.2,6.2
				c-3.2-12.4-8.8-23.4-16.9-32.9c-8-9.5-17.6-17-28.6-22.4c-11-5.4-22.7-8.1-35.1-8.1c-17.7,0-33.5,4.5-47.5,13.6
				c-14,9.1-24.9,21.5-32.7,37.2c-7.8,15.7-11.8,33.7-12.1,53.9c0.2,19.8,4.7,37.5,13.3,53.4c8.6,15.8,20.5,28.3,35.7,37.4
				c15.2,9.1,32.3,13.6,51.3,13.6c15.4,0,29.6-3.6,42.7-10.7c13.1-7.1,24-16.7,32.7-28.8c8.7-12.1,14-25.4,15.8-40.1l27.6,6.9
				C3673.3,564.8,3666.4,581.3,3655.2,596.2z"/>
			<path class="st0" d="M3852.3,633.6c-11.6,6.3-25,9.5-40.1,9.5c-12.9,0-24.5-2.2-35-6.7c-10.5-4.5-18.5-10.8-24.3-18.9
				c-5.7-8.1-8.6-17.3-8.6-27.4c0-9.4,2.6-18,7.7-25.7c5.2-7.7,13-14.2,23.4-19.5c10.4-5.3,23.1-8.6,38.1-10l52-6.5
				c4.4-0.5,7.9-1.8,10.5-4.1c2.6-2.3,4-5.3,4-9c0-7.3-2.4-13.7-7.1-19.1c-4.7-5.4-11-9.5-18.8-12.4c-7.8-2.9-16.1-4.3-24.8-4.3
				c-10.8,0-20.4,2-28.8,6c-8.4,4-15,9.2-20,15.5c-4.9,6.3-7.6,12.8-8.1,19.5l-23.4-10c0.9-9.6,5-18.7,12.2-27
				c7.2-8.4,16.8-15.2,28.8-20.3c11.9-5.2,25.3-7.7,40-7.7c14.7,0,27.7,2.7,39.1,8.1c11.4,5.4,20.3,12.9,26.9,22.6
				c6.5,9.6,9.8,20.9,9.8,33.8v116.4h-26.5v-28.6C3872.9,618.6,3863.8,627.3,3852.3,633.6z M3776.3,604.3c3.9,4.7,9.4,8.4,16.5,11
				s15,4,23.8,4c11.9,0,22.7-2.5,32.2-7.4c9.5-4.9,17-11.8,22.4-20.5c5.4-8.7,8.1-18.6,8.1-29.6v-12l-65.4,7.6
				c-9.6,0.9-17.7,2.9-24.1,6c-6.4,3.1-11.3,6.8-14.5,11c-3.2,4.3-4.8,9-4.8,14.3C3770.5,594.4,3772.4,599.6,3776.3,604.3z"/>
			<path class="st0" d="M4126.9,615.3c-6.4,8.6-15.3,15.4-26.7,20.3c-11.4,4.9-23.9,7.4-37.7,7.4c-14.2,0-27.2-2.6-38.9-7.7
				c-11.7-5.2-21.4-12.2-29.1-21.2c-7.7-9-12.3-19.2-13.9-30.7l25.5-5.2c0.7,8,3.6,15.2,8.8,21.4c5.2,6.2,11.9,11.1,20.1,14.6
				c8.3,3.6,17.7,5.3,28.2,5.3c8.7,0,16.8-1.4,24.1-4.1c7.4-2.8,13.1-6.5,17.4-11.2c4.2-4.7,6.4-9.9,6.4-15.7
				c-0.2-6.2-2.6-11.1-7.2-14.6c-4.6-3.6-10.3-6.4-17.1-8.4c-6.8-2.1-15.7-4.1-26.7-6.2c-15.2-2.8-27.4-5.6-36.7-8.6
				c-9.3-3-17.2-7.8-23.8-14.5c-6.5-6.7-9.7-16.2-9.5-28.6c-0.2-9.6,2.5-18.5,8.1-26.7c5.6-8.1,13.3-14.5,22.9-18.9
				c9.6-4.5,20.7-6.7,33.1-6.7c11.9,0,22.8,2,32.7,6c9.9,4,18,9.7,24.5,17c6.4,7.4,10.8,15.6,13.1,24.8l-25.1,7.2
				c-1.4-9.4-6.3-17-14.6-22.9c-8.4-5.9-18.5-8.8-30.5-8.8c-7.6,0-14.2,1.3-20,3.8c-5.7,2.5-10.3,6-13.6,10.5c-3.3,4.5-5,9.4-5,14.6
				c-0.2,6.4,2,11.3,6.5,14.6c4.6,3.3,8.7,5.5,12.2,6.4c3.6,0.9,14.4,3,32.5,6.2c13.8,2.8,25.6,5.9,35.5,9.5
				c9.9,3.6,18,8.7,24.3,15.5c6.3,6.8,9.6,15.6,9.8,26.3C4136.6,597,4133.3,606.7,4126.9,615.3z"/>
			<path class="st0" d="M4307.9,633.6c-11.6,6.3-25,9.5-40.1,9.5c-12.9,0-24.5-2.2-35-6.7c-10.5-4.5-18.5-10.8-24.3-18.9
				c-5.7-8.1-8.6-17.3-8.6-27.4c0-9.4,2.6-18,7.7-25.7c5.2-7.7,13-14.2,23.4-19.5c10.4-5.3,23.1-8.6,38.1-10l52-6.5
				c4.4-0.5,7.9-1.8,10.5-4.1c2.6-2.3,4-5.3,4-9c0-7.3-2.4-13.7-7.1-19.1c-4.7-5.4-11-9.5-18.8-12.4c-7.8-2.9-16.1-4.3-24.8-4.3
				c-10.8,0-20.4,2-28.8,6c-8.4,4-15,9.2-20,15.5c-4.9,6.3-7.6,12.8-8.1,19.5l-23.4-10c0.9-9.6,5-18.7,12.2-27
				c7.2-8.4,16.8-15.2,28.8-20.3c11.9-5.2,25.3-7.7,40-7.7c14.7,0,27.7,2.7,39.1,8.1c11.4,5.4,20.3,12.9,26.9,22.6
				c6.5,9.6,9.8,20.9,9.8,33.8v116.4H4335v-28.6C4328.5,618.6,4319.5,627.3,4307.9,633.6z M4232,604.3c3.9,4.7,9.4,8.4,16.5,11
				s15,4,23.8,4c11.9,0,22.7-2.5,32.2-7.4c9.5-4.9,17-11.8,22.4-20.5c5.4-8.7,8.1-18.6,8.1-29.6v-12l-65.4,7.6
				c-9.6,0.9-17.7,2.9-24.1,6c-6.4,3.1-11.3,6.8-14.5,11c-3.2,4.3-4.8,9-4.8,14.3C4226.1,594.4,4228.1,599.6,4232,604.3z"/>
		</g>
	</g>
</g>
</svg>
