<svg width="67" height="79" viewBox="0 0 67 79" fill="none" xmlns="http://www.w3.org/2000/svg">
<path d="M67 45.4062C67 63.955 52.0039 79 33.5 79C16.8115 79 2.73855 66.691 0.35166 50.2966C0.118685 48.6869 0 47.0553 0 45.4062C0 44.3914 0.826401 43.5691 1.84621 43.5691C2.86603 43.5691 3.69243 44.3914 3.69243 45.4062C3.69243 46.8759 3.79793 48.3347 4.00672 49.7695C6.12987 64.3683 18.6578 75.3257 33.5 75.3257C49.9599 75.3257 63.3076 61.9341 63.3076 45.4062C63.3076 28.8784 49.9599 15.489 33.5 15.489C32.4802 15.489 31.6538 14.6666 31.6538 13.6518V5.16152L18.016 13.6693L31.6538 22.3761V13.6518C31.6538 12.637 35.3462 12.637 35.3462 13.6518V25.7377C35.3462 27.1899 33.733 28.0691 32.5022 27.284L13.5697 15.1981C12.4312 14.4698 12.44 12.8098 13.5851 12.0946L32.5197 0.282111C33.7506 -0.483372 35.3462 0.39584 35.3462 1.83932V11.8628C52.993 12.8229 67 27.4764 67 45.4062Z" fill="#434445"/>
</svg>
