<svg width="62" height="77" viewBox="0 0 62 77" fill="none" xmlns="http://www.w3.org/2000/svg">
<g clip-path="url(#clip0_506473_2553)">
<path d="M61.6044 11.3789L31.2171 0.0396873C31.077 -0.0122322 30.923 -0.0122322 30.7847 0.0396873L0.395596 11.3789C0.157538 11.4672 0 11.6939 0 11.9448V45.4779C0 49.647 1.61214 53.7607 4.92744 58.0545C8.39328 62.5974 13.7583 67.1473 20.8668 71.5743C25.8905 74.7604 30.067 76.6261 30.3453 76.7489L30.7252 76.9376C30.811 76.9808 30.9055 77.0016 31 77.0016C31.0945 77.0016 31.1873 76.9808 31.2748 76.9376L31.6582 76.7472C31.9732 76.6018 39.3635 73.1803 46.6558 67.869C50.9653 64.7296 54.4697 61.4292 57.0726 58.0579C60.3896 53.7607 62.0017 49.647 62.0017 45.4796V11.9448C62.0017 11.6921 61.8442 11.4672 61.6062 11.3789H61.6044ZM58.8107 45.8015C58.7267 49.2091 57.3299 52.5925 54.5467 56.1369C54.5397 56.1438 54.5344 56.1525 54.5292 56.1594C50.3999 61.5348 44.0232 66.0553 39.4038 68.9004C36.8464 70.4563 34.4501 71.737 32.8835 72.5573C32.5999 72.6975 32.3286 72.8377 32.0748 72.9692C31.6354 73.1959 31.2556 73.3932 30.9702 73.5057C30.9632 73.5092 30.9562 73.5109 30.9492 73.5144C29.5139 72.8342 22.9428 69.6117 16.4715 64.7625C12.526 61.8377 9.37002 58.8125 7.08746 55.7752C4.39881 52.1945 3.09125 48.7938 3.09125 45.3792V13.7205L30.902 3.38503L58.7162 13.7205V45.4779C58.7162 45.5973 58.7512 45.708 58.8107 45.8015Z" fill="#434445"/>
<path d="M44.0952 26.247L25.6107 44.5244L17.8108 36.8126C17.5062 36.5115 17.1089 36.3453 16.6905 36.3453C16.2722 36.3453 15.8766 36.5115 15.5703 36.8126C15.2657 37.1137 15.0977 37.5066 15.0977 37.9202C15.0977 38.3339 15.2657 38.725 15.5703 39.0261L24.4904 47.8455C24.8143 48.1657 25.1696 48.3128 25.6107 48.3128C26.0518 48.3128 26.4071 48.1639 26.731 47.8455L46.3357 28.4622C46.9641 27.8409 46.9641 26.87 46.3357 26.2487C45.7073 25.6292 44.7236 25.6292 44.0969 26.2487L44.0952 26.247Z" fill="#434445"/>
</g>
<defs>
<clipPath id="clip0_506473_2553">
<rect width="62" height="77" fill="white"/>
</clipPath>
</defs>
</svg>
