<svg width="83" height="83" viewBox="0 0 83 83" fill="none" xmlns="http://www.w3.org/2000/svg">
<path d="M82.9993 47.0333C82.9993 44.2366 82.0603 41.6597 80.4967 39.5791L82.6958 36.8299C83.1733 36.2338 83.0768 35.3627 82.4792 34.8853C81.8848 34.4078 81.0121 34.5043 80.5346 35.1019L78.5837 37.5397C76.4131 35.6995 73.6101 34.5833 70.5478 34.5833V1.38333C70.5478 0.619733 69.928 0 69.1644 0H12.4493C11.6857 0 11.066 0.619733 11.066 1.38333V44.1908L10.4415 43.609C7.82506 41.1917 3.70984 40.8107 0.653856 42.7031C0.332922 42.9023 0.106846 43.2232 0.0293794 43.5932C-0.0480873 43.9631 0.0293794 44.3489 0.241227 44.6603L9.70797 58.4937C10.2929 59.3727 11.0518 60.1426 11.9498 60.7734L27.5791 71.9634C29.2675 73.1744 31.3718 73.8415 33.5045 73.8415H53.4798C54.2734 73.8415 55.0181 74.2225 55.4228 74.836C55.4781 74.9197 55.5414 74.9956 55.6125 75.0652L63.3307 82.6048C63.6011 82.8672 63.9504 82.9984 64.2983 82.9984C64.6461 82.9984 65.0176 82.8593 65.2879 82.581C65.8223 82.034 65.8112 81.1582 65.2658 80.6238L57.644 73.1807C56.7097 71.8574 55.1651 71.0717 53.4814 71.0717H33.506C31.9472 71.0717 30.4153 70.5895 29.1916 69.7121L13.5513 58.5142C12.9252 58.0731 12.4067 57.5482 12.0019 56.9412L3.46163 44.4611C5.22755 43.9647 7.2069 44.3821 8.56336 45.6358L11.5103 48.3756L13.6129 50.328C13.7173 50.4245 13.8374 50.5051 13.9655 50.5652L22.618 54.5934C22.5327 56.1934 23.0496 57.7221 24.1184 58.9869C24.1184 58.9869 24.1199 58.9901 24.1215 58.9917C24.1231 58.9932 24.1247 58.9932 24.1247 58.9948C24.8804 59.8928 25.9127 60.6754 27.1933 61.3236C28.4691 61.9702 29.9726 62.4903 31.7955 62.9172L32.7583 63.1401C34.5289 63.5495 36.1447 63.9211 37.6308 64.2847C37.6513 64.2894 37.6734 64.2878 37.694 64.2926C45.4628 66.1075 49.3551 67.0087 49.3551 67.0087C49.461 67.0324 49.5654 67.045 49.6681 67.045C50.2973 67.045 50.8665 66.6134 51.0151 65.9731C51.1874 65.2285 50.7242 64.4855 49.9796 64.3131C49.9796 64.3131 46.073 63.4104 38.2774 61.5876C38.2663 61.5844 38.2568 61.5876 38.2457 61.5876C36.7596 61.2255 35.1471 60.854 33.3796 60.4461L32.4215 60.2248C30.82 59.8501 29.5189 59.4027 28.4423 58.8573C27.4921 58.3767 26.7491 57.8217 26.2352 57.2099C26.2352 57.2099 26.2352 57.2068 26.2337 57.2052C25.6582 56.5254 25.3705 55.7634 25.3736 54.9302C25.3736 54.6519 25.4084 54.3674 25.4748 54.0749C25.4748 54.0686 25.4748 54.0622 25.4748 54.0559C25.4748 54.0496 25.4795 54.0464 25.4811 54.0417C25.5001 53.95 25.5286 53.8599 25.5618 53.7508C25.6171 53.5642 25.8669 53.4251 26.1451 53.4251H42.3863C43.5071 53.4251 44.6027 53.2275 45.6225 52.8433L46.1616 52.6426C46.1758 52.6362 46.1916 52.6331 46.2058 52.6252L48.6136 51.7303C50.3068 51.0948 52.1708 50.9367 54.0031 51.2703L59.2898 52.2489C61.2565 56.5001 65.5172 59.3347 70.2347 59.458L76.4147 66.7273C76.6882 67.0498 77.0771 67.2158 77.4692 67.2158C77.7854 67.2158 78.1047 67.1083 78.364 66.8853C78.9458 66.3905 79.0169 65.5178 78.5221 64.936L73.5674 59.1071C79.0264 57.7775 83.0025 52.9034 83.0025 47.0317L82.9993 47.0333ZM45.6493 2.76667H58.0993V15.2167H45.6493V2.76667ZM26.1436 50.6585C25.0653 50.6585 24.082 51.1517 23.4591 51.9359L15.3346 48.1558L13.8327 46.7614V41.5H44.266V50.3581C43.6589 50.5415 43.0313 50.6585 42.3847 50.6585H26.1436ZM47.6398 49.1407L47.0327 49.3668V40.1167C47.0327 39.3531 46.4129 38.7333 45.6493 38.7333H13.8327V2.76667H42.8827V16.6C42.8827 17.3636 43.5024 17.9833 44.266 17.9833H59.4827C60.2463 17.9833 60.866 17.3636 60.866 16.6V2.76667H67.7827V34.8916C62.1845 36.158 58.0993 41.1743 58.0993 47.0333C58.0993 47.7859 58.1689 48.5273 58.3001 49.253L54.5027 48.5495C52.1723 48.1273 49.8009 48.3313 47.6398 49.1407ZM70.7138 56.7151C70.66 56.7214 70.6047 56.7182 70.5493 56.7182C66.5701 56.7182 62.9418 54.2282 61.5174 50.513C61.0858 49.4158 60.866 48.2459 60.866 47.0349C60.866 42.1545 64.5069 38.0235 69.332 37.4243C69.7336 37.3753 70.1351 37.3516 70.5493 37.3516C72.9587 37.3516 75.161 38.2417 76.8573 39.704L70.4355 47.7321L65.9946 43.2912C65.4539 42.7505 64.5797 42.7505 64.0374 43.2912C63.4967 43.8319 63.4967 44.7062 64.0374 45.2484L69.5707 50.7818C69.83 51.041 70.1826 51.1865 70.5493 51.1865C70.5746 51.1865 70.5999 51.1865 70.6252 51.1849C71.0189 51.1628 71.3825 50.9746 71.6291 50.6679L78.6992 41.8288C79.6651 43.3339 80.2327 45.1188 80.2327 47.0365C80.2327 52.3121 76.108 56.5601 70.7138 56.7167V56.7151Z" fill="#434445"/>
</svg>
