<svg width="34" height="33" viewBox="0 0 34 33" fill="none" xmlns="http://www.w3.org/2000/svg">
<path d="M16.9999 0C15.3058 0.00196764 13.6818 0.657193 12.484 1.82204C11.2863 2.98688 10.6125 4.56624 10.6105 6.21382V6.54832H3.60064C3.19936 6.54832 2.86215 6.84215 2.81832 7.22978L0.0046542 32.1513C-0.0196248 32.3677 0.0518633 32.5835 0.200909 32.7455C0.349955 32.9075 0.563071 33 0.786977 33H33.2129C33.4368 33 33.6499 32.9075 33.799 32.7455C33.948 32.5835 34.0195 32.3677 33.9952 32.1513L31.1816 7.22912C31.1377 6.8415 30.8005 6.54766 30.3992 6.54766H23.3893V6.21316C23.3873 4.56559 22.7136 2.98623 21.5158 1.82138C20.3181 0.656537 18.6941 0.00196764 16.9999 0ZM12.1846 6.21316C12.1846 4.54001 13.1025 2.9941 14.5923 2.15719C16.0821 1.32094 17.9178 1.32094 19.4076 2.15719C20.8974 2.99344 21.8153 4.53935 21.8153 6.21316V6.54766H12.1846V6.21316ZM29.6938 8.07783L32.3348 31.4692H1.66507L4.30608 8.07849H10.6105V10.9289C10.6105 11.352 10.9626 11.6944 11.3976 11.6944C11.8326 11.6944 12.1839 11.352 12.1839 10.9289V8.07849H21.8146V10.9289C21.8146 11.352 22.1666 11.6944 22.601 11.6944C23.0353 11.6944 23.388 11.352 23.388 10.9289V8.07849H29.6931L29.6938 8.07783Z" fill="#434445"/>
</svg>
