<svg width="34" height="30" viewBox="0 0 34 30" fill="none" xmlns="http://www.w3.org/2000/svg">
<path d="M16.6797 30C16.4733 30 16.2755 29.9187 16.1353 29.7737L2.66335 15.911C0.835819 13.9982 -0.11796 11.4716 0.0116797 8.88763C0.104941 6.32634 1.27765 3.90937 3.26326 2.18189C6.85614 -0.913216 12.3308 -0.602508 15.7312 2.88775L16.6797 3.85454L17.7499 2.75351C19.3988 1.00145 21.7515 0 24.2213 0C26.6911 0 29.0438 1.00145 30.692 2.75351C32.3926 4.55978 33.3331 6.90049 33.3331 9.32691C33.3331 11.7533 32.3926 14.094 30.692 15.9003L17.224 29.7737C17.0838 29.9181 16.886 30 16.6797 30ZM9.05671 1.46531C7.28474 1.46278 5.57628 2.09239 4.26731 3.22997C2.57405 4.70473 1.57397 6.76624 1.49328 8.95128C1.38017 11.1565 2.18976 13.3144 3.74544 14.9512L16.6797 28.2568L29.6066 14.9549C31.0604 13.4115 31.8654 11.4105 31.8654 9.33636C31.8654 7.26224 31.0611 5.26123 29.6066 3.71778L30.1477 3.23439L29.6066 3.70707C28.2388 2.24302 26.2796 1.40543 24.2226 1.40543C22.1656 1.40543 20.2071 2.24302 18.8392 3.70707L17.2247 5.36964C16.9237 5.65576 16.4369 5.65576 16.136 5.36964L14.6544 3.84509C13.2197 2.34134 11.1898 1.47854 9.05803 1.46594L9.05671 1.46531Z" fill="#434445"/>
</svg>
