<svg width="19" height="19" viewBox="0 0 19 19" fill="none" xmlns="http://www.w3.org/2000/svg">
<path d="M13.4337 6.96422C14.6067 7.80568 16.0436 8.30077 17.5955 8.30077V5.30373C17.3018 5.30379 17.0089 5.27306 16.7215 5.21196V7.57106C15.1697 7.57106 13.733 7.07596 12.5597 6.23457V12.3507C12.5597 15.4102 10.0883 17.8903 7.03975 17.8903C5.90228 17.8903 4.84504 17.5452 3.9668 16.9533C4.96917 17.9819 6.36706 18.62 7.91357 18.62C10.9623 18.62 13.4339 16.1399 13.4339 13.0802V6.96422H13.4337ZM14.5119 3.94058C13.9125 3.28336 13.5189 2.43402 13.4337 1.49504V1.10956H12.6055C12.814 2.303 13.5251 3.32261 14.5119 3.94058ZM5.89498 14.6055C5.56007 14.1648 5.37908 13.6257 5.37989 13.0714C5.37989 11.6721 6.51032 10.5375 7.90497 10.5375C8.16488 10.5374 8.42324 10.5774 8.67093 10.6562V7.59221C8.38147 7.5524 8.08932 7.5355 7.7973 7.5417V9.92658C7.54942 9.84771 7.29094 9.80764 7.03096 9.80789C5.63632 9.80789 4.50595 10.9424 4.50595 12.3419C4.50595 13.3314 5.07098 14.1882 5.89498 14.6055Z" fill="#434445"/>
<path d="M12.5607 6.23451C13.734 7.0759 15.1707 7.57099 16.7225 7.57099V5.2119C15.8563 5.02673 15.0895 4.57245 14.5129 3.94058C13.526 3.32255 12.815 2.30294 12.6065 1.10956H10.4309V13.0801C10.426 14.4756 9.29749 15.6055 7.90584 15.6055C7.08576 15.6055 6.3572 15.2132 5.89579 14.6055C5.07185 14.1882 4.50682 13.3314 4.50682 12.342C4.50682 10.9426 5.63719 9.80796 7.03183 9.80796C7.29904 9.80796 7.55658 9.84971 7.79817 9.92664V7.54176C4.80321 7.60386 2.39453 10.0597 2.39453 13.0801C2.39453 14.5879 2.99435 15.9547 3.96785 16.9534C4.8461 17.5452 5.90334 17.8904 7.04081 17.8904C10.0894 17.8904 12.5608 15.4102 12.5608 12.3507V6.23451H12.5607Z" fill="#434445"/>
<path d="M16.7215 5.21193V4.57405C15.9403 4.57524 15.1746 4.35571 14.5119 3.94055C15.0985 4.58513 15.871 5.02958 16.7215 5.21193ZM12.6054 1.10959C12.5855 0.995538 12.5703 0.880732 12.5597 0.765487V0.380005H9.55578V12.3506C9.55098 13.7459 8.42255 14.8759 7.03077 14.8759C6.62217 14.8759 6.23638 14.7786 5.89474 14.6056C6.35615 15.2133 7.0847 15.6055 7.90478 15.6055C9.29631 15.6055 10.425 14.4757 10.4299 13.0801V1.10959H12.6054ZM7.79724 7.54179V6.86272C7.54624 6.82829 7.29318 6.81102 7.03981 6.81114C3.99099 6.81108 1.51953 9.2913 1.51953 12.3506C1.51953 14.2686 2.49086 15.959 3.96686 16.9533C2.99335 15.9547 2.39354 14.5878 2.39354 13.0801C2.39354 10.0598 4.80215 7.60389 7.79724 7.54179Z" fill="#434445"/>
</svg>
