<svg width="38" height="22" viewBox="0 0 38 22" fill="none" xmlns="http://www.w3.org/2000/svg">
<g clip-path="url(#clip0_506389_2791)">
<path d="M9.86001 0.443359H8.67188V11.5685H9.86001V0.443359Z" fill="#434445"/>
<path d="M12.5454 0.443359H12.1211V11.5685H12.5454V0.443359Z" fill="#434445"/>
<path d="M11.7639 0.443359H11V11.5685H11.7639V0.443359Z" fill="#434445"/>
<path d="M8.2248 0.443359H7.46094V11.5685H8.2248V0.443359Z" fill="#434445"/>
<path d="M4.28755 0.443359H3.86328V11.5685H4.28755V0.443359Z" fill="#434445"/>
<path d="M3.18183 0.443359H2.41797V11.5685H3.18183V0.443359Z" fill="#434445"/>
<path d="M20.9165 0.443359H20.4922V11.5685H20.9165V0.443359Z" fill="#434445"/>
<path d="M23.0747 0.443359H22.6504V11.5685H23.0747V0.443359Z" fill="#434445"/>
<path d="M1.73872 0.443359H1.31445V11.5685H1.73872V0.443359Z" fill="#434445"/>
<path d="M15.3071 0.443359H14.8828V11.5685H15.3071V0.443359Z" fill="#434445"/>
<path d="M27.7346 0.443359H26.9707V11.5685H27.7346V0.443359Z" fill="#434445"/>
<path d="M16.426 0.443359H15.6621V11.5685H16.426V0.443359Z" fill="#434445"/>
<path d="M17.9829 0.443359H17.5586V11.5685H17.9829V0.443359Z" fill="#434445"/>
<path d="M18.6743 0.443359H18.25V11.5685H18.6743V0.443359Z" fill="#434445"/>
<path d="M24.9694 0.443359H23.7812V11.5685H24.9694V0.443359Z" fill="#434445"/>
<path d="M19.3637 0.443359H18.9395V11.5685H19.3637V0.443359Z" fill="#434445"/>
<path d="M35.5356 0.443359H35.1113V11.5685H35.5356V0.443359Z" fill="#434445"/>
<path d="M20.1411 0.443359H19.7168V11.5685H20.1411V0.443359Z" fill="#434445"/>
<path d="M36.6391 0.443359H36.2148V11.5685H36.6391V0.443359Z" fill="#434445"/>
<path d="M26.2681 0.443359H25.334V11.5685H26.2681V0.443359Z" fill="#434445"/>
<path d="M32.9045 0.443359H31.6309V11.5685H32.9045V0.443359Z" fill="#434445"/>
<path d="M13.5764 0.443359H12.8125V11.5685H13.5764V0.443359Z" fill="#434445"/>
<path d="M37.3188 0.443359H36.8945V11.5685H37.3188V0.443359Z" fill="#434445"/>
<path d="M6.23866 0.443359H4.71094V11.5685H6.23866V0.443359Z" fill="#434445"/>
<path d="M30.4104 0.443359H29.1367V11.5685H30.4104V0.443359Z" fill="#434445"/>
<path d="M0.891067 0.443359H0.466797V11.5685H0.891067V0.443359Z" fill="#434445"/>
<path d="M7.08833 0.443359H6.66406V11.5685H7.08833V0.443359Z" fill="#434445"/>
<path d="M34.0102 0.443359H33.5859V11.5685H34.0102V0.443359Z" fill="#434445"/>
<path d="M28.4282 0.443359H28.0039V11.5685H28.4282V0.443359Z" fill="#434445"/>
<path d="M25.9336 15.8307H28.0586V21.4466H28.9116V15.8307H31.0447V15.0789H25.9336V15.8307Z" fill="#434445"/>
<path d="M20.9468 18.5278H24.5138V17.7806H20.9468V15.8307H24.7562V15.0789H20.0938V21.4466H24.9057V20.695H20.9468V18.5278Z" fill="#434445"/>
<path d="M37.9996 18.2717C38.0101 17.681 37.8814 17.096 37.624 16.5628C37.3854 16.0731 37.0051 15.6643 36.5313 15.3877C36.044 15.1043 35.4871 14.9584 34.9217 14.966C34.084 14.9369 33.2738 15.2632 32.6959 15.8627C32.0889 16.546 31.7786 17.438 31.8321 18.3455C31.8303 18.8961 31.9567 19.4397 32.2015 19.9343C32.4382 20.4257 32.8153 20.8381 33.286 21.121C33.7765 21.4139 34.3407 21.5644 34.9137 21.5551C35.461 21.5582 36 21.4228 36.4793 21.1619C36.9656 20.8992 37.3585 20.4952 37.6044 20.0046C37.8747 19.4665 38.0104 18.8722 37.9999 18.2717H37.9996ZM36.5007 20.1665C36.0967 20.6079 35.5173 20.8523 34.9153 20.8356C34.3186 20.8499 33.7449 20.6081 33.3425 20.1729C32.9016 19.6722 32.6753 19.0216 32.712 18.359L32.7111 18.3581C32.6375 17.615 32.8737 16.8742 33.365 16.3068C33.7809 15.9047 34.3423 15.6834 34.9243 15.6921C35.3308 15.6869 35.7303 15.7978 36.0746 16.0114C36.4192 16.2277 36.6902 16.541 36.8529 16.9108C37.0403 17.339 37.1323 17.8019 37.123 18.2684C37.1682 18.9563 36.9456 19.6354 36.5007 20.1667V20.1665Z" fill="#434445"/>
<path d="M15.5523 15.0789H14.6992V21.4466H18.7275V20.695H15.5523V15.0789Z" fill="#434445"/>
<path d="M12.9231 16.5628C12.6845 16.0731 12.3042 15.6643 11.8304 15.3877C11.3431 15.1043 10.7863 14.9584 10.2208 14.966C9.38316 14.9369 8.57296 15.2632 7.99502 15.8627C7.38861 16.5463 7.07909 17.4382 7.13297 18.3455C7.13123 18.8961 7.2576 19.4397 7.50234 19.9343C7.73982 20.426 8.11776 20.8386 8.58952 21.121C9.07988 21.4135 9.64359 21.5635 10.2163 21.5542C10.7636 21.5574 11.3026 21.422 11.7819 21.161C12.2668 20.898 12.6582 20.4943 12.9034 20.0046C13.1737 19.4665 13.3094 18.8722 13.2989 18.2717C13.3094 17.681 13.1807 17.096 12.9233 16.5628H12.9231ZM11.7963 20.1657C11.3938 20.6059 10.8168 20.8506 10.2163 20.8356C9.61962 20.8499 9.04589 20.6081 8.64355 20.1729C8.20258 19.6722 7.97628 19.0216 8.01303 18.359V18.3581C7.93968 17.6144 8.17644 16.8734 8.66883 16.3059C9.08467 15.9038 9.64606 15.6825 10.2281 15.6912C10.6346 15.6861 11.034 15.797 11.3784 16.0106C11.723 16.2269 11.994 16.5401 12.1567 16.9099C12.3413 17.3388 12.4306 17.8017 12.4188 18.2675C12.464 18.9554 12.2414 19.6345 11.7965 20.1658L11.7963 20.1657Z" fill="#434445"/>
<path d="M4.67109 18.0582C4.94836 17.932 5.18352 17.7302 5.34852 17.4764C5.49508 17.2462 5.57279 16.9798 5.57279 16.7078C5.57104 16.4095 5.48331 16.1179 5.31962 15.8671C5.15447 15.6022 4.91031 15.3942 4.62054 15.272C4.2426 15.1293 3.83939 15.0636 3.43517 15.0789H1.01562V21.4466H3.47482C3.82443 21.453 4.17347 21.4171 4.51436 21.3399C4.76855 21.2821 5.0085 21.175 5.22056 21.0251C5.4242 20.8673 5.58702 20.6639 5.69523 20.4316C5.82319 20.1727 5.8887 19.888 5.88623 19.5998C5.89408 19.2527 5.78325 18.913 5.57192 18.6354C5.34344 18.3511 5.02709 18.1483 4.67109 18.0581V18.0582ZM1.86968 15.8307H3.15876C3.48833 15.8168 3.81819 15.8466 4.13977 15.9196C4.32104 15.974 4.47602 16.0916 4.5758 16.2506C4.68038 16.4179 4.73383 16.6116 4.72977 16.8083C4.73732 17.0064 4.67951 17.2014 4.56491 17.3642C4.44188 17.5207 4.26933 17.6322 4.07484 17.681C3.80904 17.7405 3.53641 17.7653 3.26407 17.7548H1.86954V15.8307H1.86968ZM4.87385 20.1318C4.79905 20.2767 4.68692 20.3994 4.54864 20.4877C4.39729 20.5774 4.23011 20.6378 4.05596 20.6656C3.86336 20.6907 3.66916 20.7009 3.47497 20.6959H1.86954V18.4995H3.36124C3.67919 18.4881 3.99713 18.5241 4.30433 18.6062C4.51204 18.6693 4.69244 18.7993 4.81692 18.9754C4.94299 19.1587 5.00763 19.3766 5.00153 19.5981C5.00487 19.7838 4.96086 19.9673 4.87356 20.1318H4.87385Z" fill="#434445"/>
</g>
<defs>
<clipPath id="clip0_506389_2791">
<rect width="37.5327" height="21.1122" fill="white" transform="translate(0.466797 0.443359)"/>
</clipPath>
</defs>
</svg>
