<?xml version="1.0" encoding="UTF-8"?>
<svg id="Camada_2" data-name="Camada 2" xmlns="http://www.w3.org/2000/svg" viewBox="0 0 750 471">
  <defs>
    <style>
      .cls-1 {
        fill: #aaa;
      }

      .cls-2 {
        fill: #3d3d3d;
      }

      .cls-3 {
        fill: #fff;
      }

      .cls-4 {
        fill: #858585;
      }
    </style>
  </defs>
  <g id="Camada_1-2" data-name="Camada 1">
    <g id="Page-1">
      <g id="mastercard">
        <rect id="Rectangle-1" class="cls-2" width="750" height="471" rx="40" ry="40"/>
        <g id="Group">
          <path id="Shape" class="cls-3" d="M221.13,421.67v-24.85c0-9.53-5.8-15.74-15.32-15.74-5,0-10.35,1.66-14.08,7-2.9-4.56-7-7-13.25-7-4.72-.2-9.23,1.97-12,5.8v-5h-7.87v39.76h7.87v-22.75c0-7,4.14-10.35,9.94-10.35s9.11,3.73,9.11,10.35v22.78h7.87v-22.78c0-7,4.14-10.35,9.94-10.35s9.11,3.73,9.11,10.35v22.78h8.68ZM350.35,382.32h-14.5v-12h-7.85v12h-8.28v7h8.28v18.68c0,9.11,3.31,14.5,13.25,14.5,3.77-.08,7.46-1.07,10.75-2.9l-2.49-7c-2.23,1.4-4.83,2.12-7.46,2.07-4.14,0-6.21-2.49-6.21-6.63v-19.04h14.5v-6.68ZM424.07,381.08c-4.36-.1-8.45,2.11-10.77,5.8v-5h-7.87v39.76h7.87v-22.33c0-6.63,3.31-10.77,8.7-10.77,1.82.07,3.62.35,5.38.83l2.49-7.46c-1.9-.48-3.84-.76-5.8-.83ZM312.66,385.22c-4.14-2.9-9.94-4.14-16.15-4.14-9.94,0-16.15,4.56-16.15,12.43,0,6.63,4.56,10.35,13.25,11.6l4.14.41c4.56.83,7.46,2.49,7.46,4.56,0,2.9-3.31,5-9.53,5-4.75.1-9.4-1.36-13.25-4.14l-4.14,6.21c5.8,4.14,12.84,5,17,5,11.6,0,17.81-5.38,17.81-12.84,0-7-5-10.35-13.67-11.6l-4.14-.41c-3.73-.41-7-1.66-7-4.14,0-2.9,3.31-5,7.87-5,5,0,9.94,2.07,12.43,3.31l4.07-6.25ZM432.77,401.79c0,12,7.87,20.71,20.71,20.71,5.8,0,9.94-1.24,14.08-4.56l-4.14-6.21c-2.93,2.37-6.58,3.69-10.35,3.73-7,0-12.43-5.38-12.43-13.25s5.36-13.21,12.43-13.21c3.77.04,7.42,1.36,10.35,3.73l4.14-6.21c-4.14-3.31-8.28-4.56-14.08-4.56-12.43-.83-20.71,7.87-20.71,19.88v-.05ZM377.27,381.08c-11.6,0-19.47,8.28-19.47,20.71s8.28,20.71,20.29,20.71c5.84.12,11.55-1.78,16.15-5.38l-4.14-5.8c-3.33,2.58-7.39,4.03-11.6,4.14-5.38,0-11.18-3.31-12-10.35h29.41v-3.31c0-12.43-7.46-20.71-18.64-20.71h0ZM376.86,388.54c5.8,0,9.94,3.73,10.35,9.94h-21.53c1.24-5.8,5-9.94,11.18-9.94ZM269.59,401.79v-19.88h-7.87v5c-2.9-3.73-7-5.8-12.84-5.8-11.18,0-19.47,8.7-19.47,20.71s8.28,20.71,19.47,20.71c5.8,0,9.94-2.07,12.84-5.8v5h7.87v-19.94ZM237.7,401.79c0-7.46,4.56-13.25,12.43-13.25,7.46,0,12,5.8,12,13.25,0,7.87-5,13.25-12,13.25-7.87.41-12.43-5.8-12.43-13.25ZM543.78,381.08c-4.36-.1-8.45,2.11-10.77,5.8v-5h-7.87v39.76h7.86v-22.33c0-6.63,3.31-10.77,8.7-10.77,1.82.07,3.62.35,5.38.83l2.49-7.46c-1.9-.48-3.84-.76-5.8-.83h.01ZM513.13,401.79v-19.88h-7.87v5c-2.9-3.73-7-5.8-12.84-5.8-11.18,0-19.47,8.7-19.47,20.71s8.28,20.71,19.47,20.71c5.8,0,9.94-2.07,12.84-5.8v5h7.87v-19.94ZM481.24,401.79c0-7.46,4.56-13.25,12.43-13.25,7.46,0,12,5.8,12,13.25,0,7.87-5,13.25-12,13.25-7.87.41-12.43-5.8-12.43-13.25ZM593.07,401.79v-35.62h-7.87v20.71c-2.9-3.73-7-5.8-12.84-5.8-11.18,0-19.47,8.7-19.47,20.71s8.28,20.71,19.47,20.71c5.8,0,9.94-2.07,12.84-5.8v5h7.87v-19.91ZM561.18,401.79c0-7.46,4.56-13.25,12.43-13.25,7.46,0,12,5.8,12,13.25,0,7.87-5,13.25-12,13.25-7.88.42-12.44-5.79-12.44-13.25h0Z"/>
          <g>
            <rect id="Rectangle-path" class="cls-4" x="303.55" y="80.39" width="143.72" height="234.42"/>
            <path id="Shape-2" data-name="Shape" class="cls-1" d="M318.05,197.6c0-45.69,20.91-88.86,56.74-117.21-61.13-48.06-148.93-41.08-201.69,16.05-52.76,57.12-52.76,145.2,0,202.32,52.76,57.12,140.56,64.11,201.69,16.05-35.83-28.35-56.73-71.52-56.74-117.21Z"/>
            <path id="Shape-3" data-name="Shape" class="cls-3" d="M616.26,197.6c.04,57.05-32.5,109.11-83.8,134.06-51.3,24.95-112.35,18.41-157.2-16.85,35.84-28.34,56.74-71.52,56.74-117.21s-20.9-88.87-56.74-117.21c44.85-35.25,105.89-41.8,157.2-16.85,51.3,24.95,83.85,77.01,83.8,134.06Z"/>
          </g>
        </g>
      </g>
    </g>
  </g>
</svg>