<svg width="65" height="18" viewBox="0 0 65 18" fill="none" xmlns="http://www.w3.org/2000/svg">
<g clip-path="url(#clip0_506389_2773)">
<path d="M27.9143 6.00427C27.4187 5.44386 26.5383 5.14465 25.3719 5.14465H21.8826C21.6434 5.14465 21.4412 5.31088 21.4042 5.53884L19.9937 14.154C19.9666 14.325 20.1022 14.4769 20.2797 14.4769H21.9467C22.1859 14.4769 22.3881 14.3107 22.4251 14.0828L22.8074 11.758C22.8443 11.53 23.0465 11.3638 23.2857 11.3638H24.3905C26.6888 11.3638 28.0154 10.2928 28.3607 8.16993C28.516 7.24145 28.3681 6.51244 27.9168 6.00189L27.9143 6.00427ZM25.7739 8.29341C25.584 9.49972 24.6272 9.49972 23.7025 9.49972H23.1772L23.5471 7.24857C23.5693 7.11322 23.6902 7.01349 23.8332 7.01349H24.0749C24.7037 7.01349 25.3004 7.01349 25.6062 7.35781C25.7887 7.5644 25.8454 7.87073 25.7764 8.29341H25.7739Z" fill="#434445"/>
<path d="M44.6975 8.25305H43.0182C42.8579 8.25305 42.7075 8.32904 42.6162 8.45727L40.3007 11.7414L39.3192 8.5855C39.2576 8.38841 39.0677 8.25305 38.8557 8.25305H37.2059C37.0062 8.25305 36.8656 8.44302 36.9297 8.62349L38.7792 13.8501L37.0407 16.2128C36.9051 16.398 37.0407 16.6545 37.2774 16.6545H38.9543C39.1121 16.6545 39.2625 16.5785 39.3538 16.455L44.9392 8.69236C45.0723 8.50714 44.9342 8.25305 44.7 8.25305H44.6975Z" fill="#434445"/>
<path d="M35.8003 8.25305H34.1284C33.9854 8.25305 33.8646 8.35278 33.8399 8.49051L33.7659 8.93932L33.65 8.77547C33.2875 8.26967 32.4812 8.10107 31.6773 8.10107C29.8327 8.10107 28.2545 9.44749 27.9487 11.3377C27.7885 12.2804 28.0153 13.1804 28.5702 13.8097C29.0806 14.3867 29.8081 14.6266 30.6736 14.6266C32.1606 14.6266 32.9867 13.7076 32.9867 13.7076L32.9127 14.154C32.8856 14.325 33.0212 14.477 33.2012 14.477H34.7055C34.9447 14.477 35.1469 14.3107 35.1839 14.0828L36.0864 8.576C36.1135 8.40503 35.9779 8.25305 35.7979 8.25305H35.8003ZM33.4725 11.3852C33.3122 12.3042 32.5527 12.9216 31.586 12.9216C31.1027 12.9216 30.7131 12.772 30.464 12.487C30.2174 12.2044 30.1237 11.8031 30.2026 11.3567C30.3531 10.4448 31.1224 9.80843 32.0743 9.80843C32.5477 9.80843 32.9349 9.96041 33.1889 10.2477C33.4454 10.5374 33.5465 10.9411 33.4725 11.3852Z" fill="#434445"/>
<path d="M60.6846 8.25305H59.0151C58.8721 8.25305 58.7513 8.35278 58.7266 8.49051L58.6527 8.93932L58.5368 8.77547C58.1743 8.26967 57.3679 8.10107 56.564 8.10107C54.7195 8.10107 53.1412 9.44749 52.8355 11.3377C52.6752 12.2804 52.902 13.1804 53.4569 13.8097C53.9673 14.3867 54.6948 14.6266 55.5603 14.6266C57.0473 14.6266 57.8734 13.7076 57.8734 13.7076L57.7994 14.154C57.7723 14.325 57.9079 14.477 58.0879 14.477H59.5922C59.8314 14.477 60.0336 14.3107 60.0706 14.0828L60.9731 8.576C61.0002 8.40503 60.8646 8.25305 60.6846 8.25305ZM58.3567 11.3852C58.1964 12.3042 57.4369 12.9216 56.4703 12.9216C55.987 12.9216 55.5973 12.772 55.3483 12.487C55.1017 12.2044 55.008 11.8031 55.0869 11.3567C55.2373 10.4448 56.0067 9.80843 56.9585 9.80843C57.432 9.80843 57.8192 9.96041 58.0732 10.2477C58.3296 10.5374 58.4307 10.9411 58.3567 11.3852Z" fill="#434445"/>
<path d="M64.5537 5.14703H62.9434C62.8004 5.14703 62.6771 5.24677 62.6549 5.3845L61.2222 14.1564C61.1951 14.3274 61.3307 14.4793 61.5083 14.4793H62.9484C63.1876 14.4793 63.3898 14.3131 63.4268 14.0851L64.8398 5.46998C64.8669 5.29901 64.7313 5.14703 64.5513 5.14703H64.5537Z" fill="#434445"/>
<path d="M52.8011 6.00427C52.3054 5.44386 51.4251 5.14465 50.2587 5.14465H46.7693C46.5301 5.14465 46.3279 5.31088 46.2909 5.53884L44.8804 14.154C44.8533 14.325 44.9889 14.4769 45.1665 14.4769H46.9567C47.1244 14.4769 47.265 14.3606 47.2921 14.2015L47.6916 11.758C47.7286 11.53 47.9308 11.3638 48.17 11.3638H49.2747C51.573 11.3638 52.8997 10.2928 53.2449 8.16993C53.4003 7.24145 53.2523 6.51244 52.8011 6.00189V6.00427ZM50.6606 8.29341C50.4707 9.49972 49.5139 9.49972 48.5892 9.49972H48.064L48.4339 7.24857C48.4561 7.11322 48.5769 7.01349 48.7199 7.01349H48.9616C49.5904 7.01349 50.1871 7.01349 50.4929 7.35781C50.6754 7.5644 50.7321 7.87073 50.6631 8.29341H50.6606Z" fill="#434445"/>
<path d="M13.5832 4.77897V4.76472L13.5758 4.75997C13.7188 3.56791 13.4722 2.70591 12.762 1.92466C11.968 1.05792 10.5722 0.616241 8.60933 0.616241H3.55412C3.00175 0.616241 2.53568 0.998557 2.44938 1.52572L0.345917 14.3772C0.308927 14.6076 0.375508 14.8426 0.533329 15.0207C0.69115 15.1988 0.920484 15.3009 1.16215 15.3009H3.82291L3.67989 16.1772C3.64536 16.3933 3.70948 16.6117 3.85497 16.778C4.00046 16.9442 4.21746 17.0392 4.44433 17.0392H7.0755C7.58349 17.0392 8.0101 16.6877 8.08655 16.2176L8.60933 13.0593L8.64385 12.8836C8.66358 12.772 8.76222 12.6889 8.87812 12.6889H9.27267C12.3699 12.6889 14.2243 11.2807 14.7865 8.50238C15.0677 7.11085 14.8605 6.0209 14.1701 5.26102C14.0073 5.08054 13.81 4.92144 13.5856 4.78134L13.5832 4.77897ZM12.5918 5.69082C12.5524 5.83568 12.5055 5.97578 12.4587 6.11351C12.4538 6.13013 12.4488 6.14675 12.4439 6.161C12.397 6.2916 12.3428 6.41746 12.2885 6.54094C12.2811 6.55994 12.2737 6.57894 12.2663 6.59793C12.2121 6.71666 12.1529 6.83065 12.0913 6.93988C12.0814 6.95888 12.0715 6.98262 12.0592 7.00162C11.9975 7.10848 11.931 7.20821 11.8644 7.30795C11.8496 7.32932 11.8373 7.35306 11.8225 7.37444C11.7559 7.46942 11.6819 7.55966 11.6079 7.64752C11.5907 7.66889 11.5734 7.69264 11.5561 7.71401C11.4846 7.79712 11.4057 7.87548 11.3268 7.95147C11.3046 7.97284 11.2849 7.99896 11.2602 8.02034C11.1838 8.09157 11.0999 8.15806 11.0161 8.22455C10.989 8.24592 10.9618 8.27205 10.9347 8.29342C10.8558 8.35278 10.7695 8.4074 10.6857 8.46202C10.6511 8.48576 10.6166 8.51188 10.5796 8.53325C10.4982 8.58075 10.4144 8.62349 10.3306 8.66861C10.2837 8.69236 10.2418 8.71848 10.1949 8.74222C10.121 8.77784 10.0445 8.80634 9.96807 8.83958C9.90395 8.8657 9.84477 8.8942 9.78066 8.91794C9.72147 8.93932 9.65982 8.95594 9.60064 8.97731C9.51187 9.00581 9.42556 9.03668 9.33432 9.0628C9.2998 9.0723 9.26281 9.07942 9.22828 9.08654C8.63892 9.23852 7.98051 9.31688 7.24319 9.31688H5.76115C5.70937 9.31688 5.65758 9.31926 5.6058 9.32638L6.30613 5.05205C6.31846 4.97844 6.36778 4.91432 6.43929 4.88107C6.47135 4.86683 6.50587 4.8597 6.54039 4.8597H10.5032C10.7498 4.8597 10.9865 4.8692 11.2109 4.88582C11.3983 4.90007 11.5783 4.91907 11.7485 4.94519C11.8077 4.95469 11.8644 4.96656 11.9211 4.97606C11.968 4.98556 12.0148 4.99268 12.0592 5.00218C12.1578 5.02355 12.254 5.0473 12.3477 5.07342C12.3674 5.07817 12.3872 5.08529 12.4069 5.09004C12.4316 5.09717 12.4587 5.10429 12.4833 5.11379C12.5006 5.11854 12.5154 5.12566 12.5327 5.13041C12.5943 5.15178 12.656 5.17315 12.7151 5.1969C12.6831 5.35125 12.6486 5.49848 12.6091 5.64571C12.6042 5.66233 12.6017 5.67895 12.5968 5.6932L12.5918 5.69082ZM1.13502 14.5244C1.12269 14.5102 1.12516 14.4983 1.12516 14.4936L3.23108 1.64446C3.25574 1.4901 3.39384 1.37612 3.55659 1.37612H8.61179C10.338 1.37612 11.5339 1.72994 12.1702 2.42808C12.6757 2.98375 12.8779 3.58453 12.8212 4.42277C12.7916 4.41327 12.7595 4.4014 12.7275 4.3919C12.6954 4.3824 12.6609 4.3729 12.6264 4.36103C12.6066 4.35391 12.5844 4.34916 12.5647 4.34203C12.4538 4.31116 12.3403 4.28267 12.2244 4.25892C12.1554 4.24467 12.0839 4.2328 12.0123 4.22093C11.963 4.21143 11.9162 4.20193 11.8669 4.19481C11.6671 4.16394 11.4526 4.14019 11.2306 4.12357C11.2257 4.12357 11.2183 4.12357 11.2134 4.12357C11.2035 4.12357 11.1912 4.12357 11.1813 4.12357C10.9618 4.10932 10.7325 4.09982 10.4958 4.09982H6.53546C6.41216 4.09982 6.2938 4.12594 6.18036 4.16631C6.15077 4.17581 6.12118 4.18293 6.09159 4.19718C5.78581 4.33729 5.57374 4.61512 5.52195 4.93569L4.76984 9.52822L4.68106 10.0768V10.091L3.95114 14.5434H1.16461C1.16461 14.5434 1.14735 14.5434 1.13502 14.5292V14.5244ZM14.0098 8.35278C13.524 10.7559 11.9729 11.9242 9.2702 11.9242H8.87565C8.36767 11.9242 7.94105 12.2757 7.86214 12.7506L7.33443 15.9397L7.3073 16.0822C7.28758 16.1938 7.18894 16.2745 7.07304 16.2745L4.45666 16.2912L5.43071 10.3403C5.43565 10.3142 5.44551 10.2929 5.45537 10.2691C5.4899 10.1907 5.55155 10.1266 5.63292 10.0958C5.66991 10.0815 5.70937 10.0744 5.75129 10.0744H7.23333C7.45033 10.0744 7.65994 10.0673 7.86708 10.0554C7.92379 10.053 7.97804 10.0459 8.03476 10.0411C8.18025 10.0293 8.32574 10.0198 8.4663 10.0008C8.54028 9.99128 8.60933 9.97703 8.68084 9.96753C8.79921 9.94853 8.91757 9.93191 9.03347 9.91054C9.10992 9.89629 9.1839 9.87492 9.26034 9.8583C9.36391 9.83455 9.46995 9.81081 9.56858 9.78468C9.64503 9.76331 9.71901 9.73719 9.79299 9.71345C9.88669 9.68258 9.9804 9.65408 10.0716 9.62083C10.1456 9.59234 10.2171 9.56147 10.2886 9.5306C10.375 9.49498 10.4613 9.45936 10.5426 9.42137C10.6141 9.38812 10.6807 9.35013 10.7498 9.31213C10.8287 9.27176 10.9051 9.2314 10.9816 9.18628C11.0482 9.14591 11.1123 9.10317 11.1764 9.06042C11.2479 9.01293 11.3194 8.96781 11.3885 8.91557C11.4501 8.87045 11.5093 8.82059 11.5685 8.77072C11.6326 8.71848 11.6992 8.66623 11.7608 8.60924C11.8175 8.557 11.8718 8.50238 11.9285 8.44777C11.9877 8.3884 12.0469 8.33141 12.1011 8.26967C12.1529 8.21031 12.2022 8.15094 12.254 8.0892C12.3058 8.02508 12.36 7.96097 12.4094 7.8921C12.4562 7.82799 12.5006 7.7615 12.545 7.69501C12.5918 7.62377 12.6387 7.55253 12.6831 7.47892C12.725 7.40768 12.7645 7.33644 12.8039 7.26283C12.8458 7.18684 12.8853 7.10848 12.9247 7.03011C12.9617 6.95413 12.9963 6.87576 13.0308 6.79503C13.0653 6.71191 13.0998 6.63118 13.1344 6.54569C13.1664 6.46258 13.196 6.37947 13.2256 6.29398C13.2552 6.20612 13.2848 6.11826 13.3119 6.02802C13.339 5.94016 13.3637 5.84992 13.3859 5.75731C13.3982 5.70982 13.413 5.6647 13.4253 5.61484C13.4796 5.66233 13.5289 5.70982 13.5758 5.75969C14.1035 6.3391 14.2465 7.18922 14.0122 8.35278H14.0098Z" fill="#434445"/>
</g>
<defs>
<clipPath id="clip0_506389_2773">
<rect width="64.5093" height="16.4206" fill="white" transform="translate(0.335938 0.616241)"/>
</clipPath>
</defs>
</svg>
