<?xml version="1.0" encoding="UTF-8"?>
<svg id="Camada_2" data-name="Camada 2" xmlns="http://www.w3.org/2000/svg" viewBox="0 0 750 471">
  <defs>
    <style>
      .cls-1 {
        fill: #3d3d3d;
      }

      .cls-2 {
        fill: #fff;
      }
    </style>
  </defs>
  <g id="Camada_1-2" data-name="Camada 1">
    <g>
      <g id="Page-1">
        <g id="visa">
          <rect id="Rectangle-1" class="cls-1" width="750" height="471" rx="40" ry="40"/>
        </g>
      </g>
      <g>
        <path class="cls-2" d="M463.25,319.04c-12.3,0-24.06-4.87-32.75-13.56l-47.3-47.3c-3.47-3.29-8.92-3.29-12.43,0l-47.48,47.48c-8.65,8.69-20.45,13.6-32.75,13.56h-9.32l59.91,59.91c18.7,18.7,49.06,18.7,67.71,0l60.05-60.09h-5.72.09ZM290.58,151.73c12.39,0,24.01,4.82,32.75,13.56l47.48,47.48c3.42,3.42,9.01,3.42,12.43,0h0l47.3-47.3c8.65-8.69,20.45-13.6,32.75-13.56h5.72l-60.09-60.05c-18.7-18.7-49.01-18.7-67.71,0l-59.91,59.91h9.32l-.05-.05Z"/>
        <path class="cls-2" d="M518.66,201.6l-36.31-36.31c-.81.32-1.67.5-2.57.5h-16.49c-8.51,0-16.89,3.47-22.93,9.51l-47.3,47.3c-8.83,8.87-23.15,8.92-32.03.09l-.09-.09-47.48-47.48c-6.08-6.08-14.33-9.51-22.93-9.51h-20.27c-.86,0-1.67-.18-2.43-.45l-36.44,36.44c-18.7,18.7-18.7,49.06,0,67.75l36.44,36.44c.77-.32,1.58-.5,2.43-.5h20.27c8.56,0,16.89-3.42,22.93-9.51l47.44-47.48c9.01-8.56,23.11-8.56,32.12,0l47.3,47.3c6.04,6.04,14.37,9.46,22.93,9.46h16.49c.9,0,1.8.23,2.57.54l36.31-36.31c18.7-18.7,18.7-49.06,0-67.75h0l.05.05Z"/>
      </g>
    </g>
  </g>
</svg>