<svg width="39" height="17" viewBox="0 0 39 17" fill="none" xmlns="http://www.w3.org/2000/svg">
<g clip-path="url(#clip0_506389_2783)">
<path d="M15.8566 4.93153L15.6895 4.17863H13.4375V13.0846H16.0443V7.04924C16.6593 6.26556 17.7017 6.40799 18.025 6.51963V4.17863C17.6915 4.05625 16.4716 3.83224 15.8566 4.93153Z" fill="#434445"/>
<path d="M3.59458 6.76368C3.59458 6.36648 3.92813 6.21404 4.48085 6.21404C5.27329 6.21404 6.27392 6.44806 7.06636 6.86531V4.47349C6.20135 4.13783 5.34587 4.00543 4.48085 4.00543C2.36451 4.00543 0.957031 5.08468 0.957031 6.88606C0.957031 9.69513 4.91849 9.24782 4.91849 10.4588C4.91849 10.9268 4.50138 11.08 3.91786 11.08C3.05285 11.08 1.9474 10.7336 1.07139 10.2655V12.6881C2.04123 13.0953 3.02133 13.2685 3.91786 13.2685C6.08626 13.2685 7.5773 12.2201 7.5773 10.3979C7.56704 7.36486 3.59458 7.90448 3.59458 6.7644V6.76368Z" fill="#434445"/>
<path d="M21.2772 4.17865H18.6602V13.0846H21.2772V4.17865Z" fill="#434445"/>
<path d="M10.6419 1.97003L8.09815 2.49964L8.08789 10.6527C8.08789 12.1592 9.24539 13.2685 10.7885 13.2685C11.6432 13.2685 12.2693 13.1161 12.6131 12.9329V10.8667C12.2795 10.9991 10.6323 11.4672 10.6323 9.96065V6.34716H12.6131V4.17935H10.6323L10.6426 1.97075L10.6419 1.97003Z" fill="#434445"/>
<path d="M38.4904 8.6674C38.4904 6.06159 37.1973 4.00543 34.7269 4.00543C32.2564 4.00543 30.7441 6.06159 30.7441 8.64665C30.7441 11.7105 32.5167 13.2578 35.0604 13.2578C36.3007 13.2578 37.2391 12.983 37.9487 12.5965V10.5611C37.2398 10.9075 36.4268 11.1208 35.3947 11.1208C34.3625 11.1208 33.4865 10.7744 33.3722 9.57346H38.4706C38.4706 9.44106 38.4911 8.91217 38.4911 8.6674H38.4904ZM33.3399 7.70051C33.3399 6.55041 34.059 6.07161 34.7159 6.07161C35.3727 6.07161 36.0295 6.54969 36.0295 7.70051H33.3399Z" fill="#434445"/>
<path d="M26.7192 4.00543C25.6973 4.00543 25.0405 4.47349 24.6755 4.79913L24.5398 4.16789H22.2461V16.0368L24.8529 15.4972L24.8631 12.6166C25.2384 12.8814 25.7912 13.2578 26.7082 13.2578C28.5746 13.2578 30.2738 11.7921 30.2738 8.56578C30.2636 5.61429 28.5431 4.00543 26.7185 4.00543H26.7192ZM26.0939 11.0184C25.4789 11.0184 25.1138 10.8044 24.8639 10.5403L24.8536 6.7644C25.1248 6.46953 25.5001 6.26556 26.0939 6.26556C27.0425 6.26556 27.6993 7.30402 27.6993 8.63734C27.6993 9.97066 27.0528 11.0191 26.0939 11.0191V11.0184Z" fill="#434445"/>
<path d="M18.6602 3.40498L21.2772 2.85534V0.789154L18.6602 1.32878V3.40498Z" fill="#434445"/>
</g>
<defs>
<clipPath id="clip0_506389_2783">
<rect width="37.5327" height="15.2477" fill="white" transform="translate(0.957031 0.789154)"/>
</clipPath>
</defs>
</svg>
