<svg width="43" height="13" viewBox="0 0 43 13" fill="none" xmlns="http://www.w3.org/2000/svg">
<g clip-path="url(#clip0_506389_2732)">
<path d="M21.8373 4.71137C21.8134 6.34588 23.53 7.2571 24.8224 7.79878C26.1515 8.35467 26.5976 8.71158 26.5921 9.20903C26.5811 9.97023 25.5329 10.3066 24.5488 10.3192C22.8342 10.3429 21.8373 9.92127 21.0461 9.60226L20.4292 12.088C21.2241 12.4038 22.6965 12.6786 24.2221 12.6897C27.8056 12.6897 30.15 11.1689 30.1628 8.80949C30.1775 5.81526 25.3493 5.64944 25.3823 4.31183C25.3933 3.90597 25.8431 3.47326 26.8308 3.36271C27.3191 3.30744 28.6666 3.2648 30.194 3.86964L30.7944 1.46447C29.9719 1.20705 28.9163 0.960693 27.6018 0.960693C24.2294 0.960693 21.8575 2.50361 21.8373 4.7098M36.5571 1.16915C35.9035 1.16915 35.3509 1.49763 35.1049 2.00141L29.9866 12.5144H33.5665L34.2788 10.8199H38.6536L39.0667 12.5144H42.2225L39.4705 1.16915H36.5571ZM37.0583 4.23445L38.0918 8.49522H35.261L37.0583 4.23445ZM17.4955 1.16915L14.6739 12.5144H18.0867L20.9065 1.16915H17.4955ZM12.4488 1.16915L8.89648 8.89161L7.45901 2.32515C7.29012 1.59239 6.62554 1.16915 5.8857 1.16915H0.0807769L0 1.49921C1.19146 1.72188 2.54631 2.08037 3.36693 2.46412C3.86811 2.69785 4.01314 2.90315 4.17653 3.46062L6.89725 12.5144H10.5028L16.0324 1.16915H12.4488Z" fill="#434445"/>
</g>
<defs>
<clipPath id="clip0_506389_2732">
<rect width="42.2243" height="11.729" fill="white" transform="translate(0 0.962036)"/>
</clipPath>
</defs>
</svg>
