<?xml version="1.0" encoding="UTF-8"?>
<svg id="Camada_2" data-name="Camada 2" xmlns="http://www.w3.org/2000/svg" viewBox="0 0 750 471">
  <defs>
    <style>
      .cls-1 {
        fill: #3d3d3d;
      }

      .cls-2 {
        fill: #fff;
      }
    </style>
  </defs>
  <g id="Camada_1-2" data-name="Camada 1">
    <g id="Page-1">
      <g id="visa">
        <rect id="Rectangle-1" class="cls-1" width="750" height="471" rx="40" ry="40"/>
        <polygon id="Shape" class="cls-2" points="278.2 334.23 311.56 138.47 364.92 138.47 331.53 334.23 278.2 334.23"/>
        <path id="path13" class="cls-2" d="M524.31,142.69c-10.57-3.97-27.14-8.22-47.82-8.22-52.72,0-89.86,26.55-90.18,64.6-.3,28.13,26.51,43.82,46.75,53.18,20.77,9.59,27.75,15.72,27.65,24.28-.13,13.12-16.59,19.12-31.92,19.12-21.36,0-32.7-2.97-50.23-10.28l-6.88-3.11-7.49,43.82c12.46,5.46,35.51,10.2,59.44,10.44,56.09,0,92.5-26.25,92.91-66.88.2-22.27-14.01-39.22-44.8-53.19-18.65-9.06-30.07-15.1-29.95-24.27,0-8.14,9.67-16.84,30.56-16.84,17.45-.27,30.09,3.53,39.94,7.5l4.78,2.26,7.23-42.43"/>
        <path id="Path" class="cls-2" d="M661.61,138.47h-41.23c-12.77,0-22.33,3.49-27.94,16.23l-79.24,179.4h56.03s9.16-24.12,11.23-29.42c6.12,0,60.55.08,68.34.08,1.6,6.85,6.49,29.33,6.49,29.33h49.51l-43.19-195.64ZM596.2,264.87c4.41-11.28,21.26-54.72,21.26-54.72-.32.52,4.38-11.33,7.08-18.68l3.61,16.88s10.22,46.73,12.35,56.53h-44.29Z"/>
        <path id="path16" class="cls-2" d="M45.88,138.46l-.68,4.07c21.09,5.11,39.93,12.49,56.42,21.69l47.35,169.69,56.46-.07,84-195.38h-56.52l-52.24,133.5-5.57-27.13c-.26-.83-.54-1.66-.82-2.49l-18.17-87.35c-3.23-12.4-12.6-16.1-24.19-16.53H45.88Z"/>
      </g>
    </g>
  </g>
</svg>